<svg width="60" height="60" viewBox="0 0 60 60" fill="none" xmlns="http://www.w3.org/2000/svg">
<g clip-path="url(#clip0_1530_1363)">
<path d="M42.498 40C41.123 40 39.998 38.875 39.998 37.5H19.998C19.998 38.875 18.873 40 17.498 40C16.123 40 14.998 38.875 14.998 37.5H4.99805V45C4.99805 47.75 7.24805 50 9.99805 50H49.998C52.748 50 54.998 47.75 54.998 45V37.5H44.998C44.998 38.875 43.873 40 42.498 40Z" fill="white"/>
<path d="M49.998 20.0078H42.498V15.0078C42.498 12.2578 40.248 10.0078 37.498 10.0078H22.498C19.748 10.0078 17.498 12.2578 17.498 15.0078V20.0078H9.99805C7.24805 20.0078 4.99805 22.2578 4.99805 25.0078V35.0078H14.998V32.5078C14.998 31.1328 16.123 30.0078 17.498 30.0078C18.873 30.0078 19.998 31.1328 19.998 32.5078V35.0078H39.998V32.5078C39.998 31.1328 41.123 30.0078 42.498 30.0078C43.873 30.0078 44.998 31.1328 44.998 32.5078V35.0078H54.998V25.0078C54.998 22.2578 52.748 20.0078 49.998 20.0078ZM37.498 20.0078H22.498V15.0078H37.498V20.0078Z" fill="white"/>
</g>
<defs>
<clipPath id="clip0_1530_1363">
<rect width="60" height="60" fill="white"/>
</clipPath>
</defs>
</svg>
