<svg width="191" height="31" viewBox="0 0 191 31" fill="none" xmlns="http://www.w3.org/2000/svg">
<path d="M30.178 2.38524C30.5968 1.96684 30.5968 1.28848 30.178 0.870085C29.7591 0.451687 29.08 0.451687 28.6611 0.870085L30.178 2.38524ZM18.9799 5.52024C18.9799 4.92854 18.4997 4.44887 17.9074 4.44887C17.315 4.44887 16.8348 4.92854 16.8348 5.52024L18.9799 5.52024ZM25.7012 14.0984C26.2935 14.0984 26.7737 13.6187 26.7737 13.027C26.7737 12.4353 26.2935 11.9556 25.7012 11.9556L25.7012 14.0984ZM17.9074 12.9547L18.9799 12.9547L17.9074 12.9547ZM28.6611 0.870085L17.271 12.2476L18.7878 13.7627L30.178 2.38524L28.6611 0.870085ZM18.9799 12.9547L18.9799 5.52024L16.8348 5.52024L16.8348 12.9547L18.9799 12.9547ZM17.9074 14.0985L25.7012 14.0984L25.7012 11.9556L17.9074 11.9557L17.9074 14.0985ZM17.271 12.2476C17.9016 11.6177 18.9799 12.0638 18.9799 12.9547L16.8348 12.9547C16.8348 13.9728 18.0671 14.4826 18.7878 13.7627L17.271 12.2476Z" fill="#C1C1C1"/>
<path d="M1.0432 28.7085C0.624339 29.1269 0.624339 29.8053 1.0432 30.2237C1.46206 30.6421 2.14117 30.6421 2.56004 30.2237L1.0432 28.7085ZM12.2412 25.5735C12.2412 26.1652 12.7214 26.6449 13.3138 26.6449C13.9062 26.6449 14.3864 26.1652 14.3864 25.5735L12.2412 25.5735ZM5.51998 16.9954C4.92762 16.9954 4.44742 17.475 4.44743 18.0667C4.44743 18.6584 4.92764 19.1381 5.52 19.1381L5.51998 16.9954ZM13.3138 18.1391L12.2412 18.1391L13.3138 18.1391ZM2.56004 30.2237L13.9502 18.8462L12.4333 17.331L1.0432 28.7085L2.56004 30.2237ZM12.2412 18.1391L12.2412 25.5735L14.3864 25.5735L14.3864 18.1391L12.2412 18.1391ZM13.3138 16.9953L5.51998 16.9954L5.52 19.1381L13.3138 19.138L13.3138 16.9953ZM13.9502 18.8462C13.3195 19.4761 12.2412 19.03 12.2412 18.1391L14.3864 18.1391C14.3864 17.121 13.154 16.6111 12.4333 17.331L13.9502 18.8462Z" fill="#C1C1C1"/>
<path d="M56.4584 26.0361H51.6076C51.2919 26.0361 51.0336 25.9596 50.8327 25.8065C50.6413 25.6534 50.4882 25.4716 50.3734 25.2612L46.1828 17.942C46.1063 18.1525 46.0202 18.3342 45.9245 18.4873L42.0209 25.2612C41.887 25.4525 41.7291 25.6295 41.5473 25.7922C41.3655 25.9548 41.1311 26.0361 40.8441 26.0361H36.3091L43.0399 15.2726L36.5674 5.12621H41.4182C41.7339 5.12621 41.9635 5.16926 42.107 5.25537C42.2601 5.33191 42.3941 5.46586 42.5089 5.65721L46.6708 12.7037C46.7186 12.5793 46.7712 12.4598 46.8286 12.3449C46.8956 12.2301 46.9674 12.1105 47.0439 11.9862L50.6891 5.72896C50.8231 5.51848 50.9618 5.3654 51.1053 5.26972C51.2584 5.17405 51.445 5.12621 51.665 5.12621H56.3149L49.7563 15.0717L56.4584 26.0361ZM70.6499 22.1613V26.0361H58.0494V5.12621H62.9001V22.1613H70.6499ZM79.645 14.9569C80.3052 14.9569 80.8649 14.8756 81.3241 14.7129C81.7929 14.5407 82.1756 14.3063 82.4722 14.0097C82.7688 13.7131 82.9841 13.3687 83.118 12.9764C83.252 12.5746 83.319 12.144 83.319 11.6848C83.319 10.7663 83.0176 10.0487 82.4148 9.53207C81.8216 9.01542 80.8984 8.7571 79.645 8.7571H77.6932V14.9569H79.645ZM89.9493 26.0361H85.5578C84.7445 26.0361 84.1609 25.73 83.8069 25.1176L80.3339 19.047C80.1712 18.7887 79.9894 18.6021 79.7885 18.4873C79.5876 18.3629 79.3006 18.3008 78.9274 18.3008H77.6932V26.0361H72.8425V5.12621H79.645C81.1567 5.12621 82.4435 5.28407 83.5055 5.5998C84.5771 5.90597 85.4477 6.33651 86.1175 6.89142C86.7968 7.44634 87.2895 8.10172 87.5957 8.85756C87.9018 9.6134 88.0549 10.4362 88.0549 11.326C88.0549 12.0053 87.964 12.6463 87.7822 13.2491C87.6005 13.8518 87.3326 14.4115 86.9786 14.9282C86.6246 15.4353 86.1844 15.8897 85.6582 16.2916C85.1416 16.6934 84.5436 17.0235 83.8643 17.2818C84.18 17.4445 84.4766 17.6502 84.7541 17.8989C85.0316 18.1381 85.2803 18.4251 85.5004 18.76L89.9493 26.0361ZM121.283 5.12621V26.0361H117.007V14.0097C117.007 13.7322 117.011 13.4309 117.021 13.1056C117.04 12.7803 117.069 12.4502 117.107 12.1153L111.553 22.8645C111.381 23.1993 111.146 23.4529 110.85 23.6251C110.563 23.7973 110.233 23.8834 109.86 23.8834H109.199C108.826 23.8834 108.491 23.7973 108.195 23.6251C107.908 23.4529 107.678 23.1993 107.506 22.8645L101.952 12.0866C101.981 12.431 102.005 12.7707 102.024 13.1056C102.043 13.4309 102.052 13.7322 102.052 14.0097V26.0361H97.7757V5.12621H101.478C101.689 5.12621 101.871 5.13099 102.024 5.14056C102.186 5.15013 102.33 5.17883 102.454 5.22667C102.579 5.27451 102.689 5.35105 102.784 5.45629C102.89 5.55197 102.99 5.6907 103.086 5.87248L108.467 16.4781C108.659 16.8417 108.841 17.2196 109.013 17.6119C109.195 18.0042 109.367 18.406 109.529 18.8174C109.692 18.3964 109.86 17.985 110.032 17.5832C110.214 17.1813 110.405 16.7986 110.606 16.4351L115.973 5.87248C116.069 5.6907 116.165 5.55197 116.26 5.45629C116.366 5.35105 116.48 5.27451 116.605 5.22667C116.729 5.17883 116.868 5.15013 117.021 5.14056C117.184 5.13099 117.37 5.12621 117.581 5.12621H121.283ZM129.922 8.85756V13.737H136.495V17.3249H129.922V22.3048H138.504V26.0361H125.042V5.12621H138.504V8.85756H129.922ZM160.181 15.574C160.181 17.0857 159.918 18.4825 159.392 19.7646C158.875 21.0371 158.143 22.1421 157.196 23.0798C156.249 24.0078 155.106 24.7349 153.766 25.2612C152.436 25.7778 150.958 26.0361 149.332 26.0361H141.209V5.12621H149.332C150.958 5.12621 152.436 5.38932 153.766 5.91553C155.106 6.44175 156.249 7.16888 157.196 8.09694C158.143 9.02499 158.875 10.13 159.392 11.4121C159.918 12.6846 160.181 14.0719 160.181 15.574ZM155.216 15.574C155.216 14.5407 155.082 13.6079 154.814 12.7755C154.546 11.9431 154.158 11.2399 153.651 10.6658C153.154 10.0822 152.542 9.63732 151.814 9.33116C151.087 9.01543 150.26 8.85756 149.332 8.85756H146.088V22.3048H149.332C150.26 22.3048 151.087 22.1517 151.814 21.8455C152.542 21.5298 153.154 21.0849 153.651 20.5109C154.158 19.9272 154.546 19.2192 154.814 18.3869C155.082 17.5545 155.216 16.6169 155.216 15.574ZM167.637 26.0361H162.757V5.12621H167.637V26.0361ZM182.434 18.0424L180.497 12.3162C180.353 11.9527 180.2 11.5269 180.037 11.039C179.875 10.5415 179.712 10.0057 179.55 9.43161C179.406 10.0152 179.253 10.5558 179.09 11.0533C178.928 11.5508 178.775 11.9814 178.631 12.3449L176.708 18.0424H182.434ZM190.141 26.0361H186.381C185.96 26.0361 185.62 25.9405 185.362 25.7491C185.103 25.5482 184.907 25.2946 184.773 24.9885L183.539 21.3432H175.589L174.354 24.9885C174.249 25.2564 174.058 25.5003 173.78 25.7204C173.512 25.9309 173.178 26.0361 172.776 26.0361H168.987L177.081 5.12621H182.047L190.141 26.0361Z" fill="#D8D8D8"/>
</svg>
