<svg width="258" height="31" viewBox="0 0 258 31" fill="none" xmlns="http://www.w3.org/2000/svg">
<g clip-path="url(#clip0_1530_875)">
<path d="M30.3203 21.3091C11.0141 27.3445 9.22664 6.95267 18.4862 2.27433C8.54784 1.66721 1.25444 13.2738 6.97414 22.5947C12.2775 31.2372 25.5301 30.5586 30.3203 21.3091Z" fill="#D8D8D8"/>
<ellipse cx="15.4444" cy="3.09654" rx="15.4444" ry="3.09654" transform="matrix(0.816953 -0.576704 0.577557 0.81635 0 25.5757)" stroke="#999999" stroke-width="1.14407"/>
<path d="M6.97414 22.5947C1.25444 13.2738 8.54784 1.66721 18.4862 2.27433C12.5085 5.29455 11.1348 14.8637 16.1064 19.6435L6.97414 22.5947Z" fill="#D8D8D8"/>
</g>
<path d="M48.0127 27.5063C46.3617 27.5063 44.8727 27.219 43.5457 26.6443C42.2291 26.0696 41.1424 25.2493 40.2855 24.1835C39.4391 23.1072 38.901 21.8324 38.6711 20.3591L42.5896 19.7635C42.924 21.101 43.6084 22.1354 44.6429 22.8669C45.6878 23.5983 46.8894 23.9641 48.2478 23.9641C49.0524 23.9641 49.81 23.8387 50.5205 23.5879C51.2311 23.3371 51.8058 22.9714 52.2447 22.4907C52.694 22.0101 52.9186 21.4197 52.9186 20.7196C52.9186 20.4061 52.8664 20.1187 52.7619 19.8575C52.6574 19.5858 52.5007 19.3455 52.2917 19.1365C52.0931 18.9275 51.8319 18.7394 51.508 18.5723C51.1945 18.3946 50.8288 18.2431 50.4108 18.1177L44.5802 16.3936C44.0786 16.2473 43.5352 16.054 42.9501 15.8137C42.3754 15.5629 41.8268 15.2233 41.3043 14.7949C40.7923 14.356 40.3691 13.8022 40.0347 13.1334C39.7108 12.4542 39.5489 11.6183 39.5489 10.6256C39.5489 9.17318 39.9146 7.95585 40.646 6.97362C41.3879 5.98095 42.3806 5.23905 43.6241 4.74794C44.878 4.25682 46.2677 4.01649 47.7933 4.02694C49.3398 4.03739 50.7191 4.30384 51.9312 4.82631C53.1433 5.33832 54.1569 6.08544 54.9719 7.06767C55.7869 8.04989 56.3617 9.23588 56.696 10.6256L52.6365 11.3309C52.4693 10.5368 52.1454 9.86283 51.6647 9.30902C51.1945 8.74477 50.6146 8.31635 49.9249 8.02377C49.2457 7.73119 48.5195 7.57445 47.7463 7.55355C46.9939 7.5431 46.2938 7.65805 45.646 7.89838C45.0086 8.12826 44.4913 8.46264 44.0943 8.9015C43.7076 9.34037 43.5143 9.85238 43.5143 10.4375C43.5143 10.9913 43.6815 11.4459 44.0159 11.8012C44.3503 12.146 44.763 12.4229 45.2541 12.6319C45.7557 12.8304 46.2625 12.9976 46.7745 13.1334L50.8183 14.262C51.3722 14.4082 51.9939 14.6068 52.6835 14.8576C53.3732 15.1083 54.0367 15.4584 54.6741 15.9077C55.3115 16.357 55.834 16.9474 56.2415 17.6789C56.6595 18.4103 56.8684 19.3403 56.8684 20.4688C56.8684 21.6391 56.6229 22.6684 56.1318 23.5565C55.6511 24.4343 54.998 25.1657 54.1725 25.7509C53.3471 26.336 52.4014 26.7749 51.3356 27.0675C50.2802 27.3601 49.1726 27.5063 48.0127 27.5063ZM60.5746 27.0361V4.46581H75.1512V8.00809H64.352V13.5723H73.2704V17.1146H64.352V23.4938H75.1512V27.0361H60.5746ZM79.2252 27.0361V4.46581H83.0496L93.5197 20.3748V4.46581H97.3442V27.0361H93.5197L83.0496 11.1272V27.0361H79.2252ZM107.462 27.0361V8.00809H100.158V4.46581H118.544V8.00809H111.24V27.0361H107.462ZM121.363 27.0361V4.46581H130.689C130.909 4.46581 131.191 4.47626 131.536 4.49716C131.88 4.50761 132.199 4.53895 132.492 4.5912C133.798 4.78973 134.874 5.22338 135.721 5.89213C136.577 6.56088 137.21 7.40726 137.617 8.43129C138.035 9.44486 138.244 10.5734 138.244 11.8168C138.244 13.6559 137.779 15.239 136.849 16.566C135.919 17.8826 134.493 18.6977 132.57 19.0111L130.956 19.1522H125.141V27.0361H121.363ZM134.326 27.0361L129.874 17.8513L133.714 17.0049L138.605 27.0361H134.326ZM125.141 15.6256H130.533C130.742 15.6256 130.977 15.6151 131.238 15.5942C131.499 15.5733 131.739 15.5315 131.959 15.4688C132.586 15.3121 133.077 15.0352 133.432 14.6381C133.798 14.2411 134.054 13.7917 134.2 13.2902C134.357 12.7886 134.435 12.2975 134.435 11.8168C134.435 11.3362 134.357 10.8451 134.2 10.3435C134.054 9.83148 133.798 9.37694 133.432 8.97987C133.077 8.5828 132.586 8.3059 131.959 8.14916C131.739 8.08646 131.499 8.04989 131.238 8.03944C130.977 8.01854 130.742 8.00809 130.533 8.00809H125.141V15.6256ZM147.428 27.0361V17.7886L139.748 4.46581H144.153L149.341 13.4626L154.513 4.46581H158.917L151.253 17.7886V27.0361H147.428ZM166.44 27.0361V4.46581H181.017V8.00809H170.218V13.5723H179.136V17.1146H170.218V23.4938H181.017V27.0361H166.44ZM194.154 27.5063C191.897 27.5063 189.964 27.0152 188.355 26.033C186.745 25.0403 185.507 23.661 184.64 21.8951C183.783 20.1292 183.355 18.0811 183.355 15.751C183.355 13.4208 183.783 11.3727 184.64 9.60683C185.507 7.84091 186.745 6.46683 188.355 5.48461C189.964 4.49193 191.897 3.99559 194.154 3.99559C196.756 3.99559 198.924 4.64867 200.658 5.95482C202.393 7.25053 203.61 9.00077 204.311 11.2056L200.502 12.2557C200.063 10.7824 199.316 9.63295 198.26 8.80746C197.205 7.97152 195.836 7.55355 194.154 7.55355C192.639 7.55355 191.374 7.89315 190.361 8.57235C189.358 9.25155 188.6 10.2077 188.088 11.4407C187.587 12.6632 187.331 14.1 187.32 15.751C187.32 17.4019 187.571 18.8439 188.072 20.0769C188.584 21.2995 189.347 22.2504 190.361 22.9296C191.374 23.6088 192.639 23.9484 194.154 23.9484C195.836 23.9484 197.205 23.5304 198.26 22.6945C199.316 21.8585 200.063 20.7091 200.502 19.2462L204.311 20.2964C203.61 22.5012 202.393 24.2566 200.658 25.5628C198.924 26.8585 196.756 27.5063 194.154 27.5063ZM217.924 27.5063C215.667 27.5063 213.734 27.0152 212.125 26.033C210.516 25.0403 209.277 23.661 208.41 21.8951C207.553 20.1292 207.125 18.0811 207.125 15.751C207.125 13.4208 207.553 11.3727 208.41 9.60683C209.277 7.84091 210.516 6.46683 212.125 5.48461C213.734 4.49193 215.667 3.99559 217.924 3.99559C220.181 3.99559 222.114 4.49193 223.724 5.48461C225.343 6.46683 226.581 7.84091 227.438 9.60683C228.306 11.3727 228.739 13.4208 228.739 15.751C228.739 18.0811 228.306 20.1292 227.438 21.8951C226.581 23.661 225.343 25.0403 223.724 26.033C222.114 27.0152 220.181 27.5063 217.924 27.5063ZM217.924 23.9484C219.439 23.9588 220.698 23.6245 221.702 22.9453C222.715 22.2661 223.473 21.31 223.974 20.0769C224.486 18.8439 224.742 17.4019 224.742 15.751C224.742 14.1 224.486 12.6684 223.974 11.4563C223.473 10.2338 222.715 9.2829 221.702 8.6037C220.698 7.9245 219.439 7.57445 217.924 7.55355C216.409 7.5431 215.15 7.87748 214.147 8.55668C213.144 9.23588 212.386 10.192 211.874 11.425C211.373 12.658 211.122 14.1 211.122 15.751C211.122 17.4019 211.373 18.8387 211.874 20.0613C212.376 21.2734 213.128 22.219 214.131 22.8982C215.145 23.5774 216.409 23.9275 217.924 23.9484ZM232.486 27.0361V4.46581H235.887L243.693 20.4531L251.498 4.46581H254.9V27.0361H251.373V12.5692L244.445 27.0361H242.94L236.028 12.5692V27.0361H232.486Z" fill="#D8D8D8"/>
<defs>
<clipPath id="clip0_1530_875">
<rect width="30.3178" height="30.2842" fill="white" transform="translate(0 0.394043)"/>
</clipPath>
</defs>
</svg>
