<svg width="60" height="60" viewBox="0 0 60 60" fill="none" xmlns="http://www.w3.org/2000/svg">
<path d="M50 45.0078C52.75 45.0078 54.975 42.7578 54.975 40.0078L55 15.0078C55 12.2578 52.75 10.0078 50 10.0078H10C7.25 10.0078 5 12.2578 5 15.0078V40.0078C5 42.7578 7.25 45.0078 10 45.0078H2.5C1.125 45.0078 0 46.1328 0 47.5078C0 48.8828 1.125 50.0078 2.5 50.0078H57.5C58.875 50.0078 60 48.8828 60 47.5078C60 46.1328 58.875 45.0078 57.5 45.0078H50ZM12.5 15.0078H47.5C48.875 15.0078 50 16.1328 50 17.5078V37.5078C50 38.8828 48.875 40.0078 47.5 40.0078H12.5C11.125 40.0078 10 38.8828 10 37.5078V17.5078C10 16.1328 11.125 15.0078 12.5 15.0078Z" fill="white"/>
</svg>
