<svg width="106" height="44" viewBox="0 0 106 44" fill="none" xmlns="http://www.w3.org/2000/svg">
<path d="M32.5566 6.55691V18.3438H31.3232C31.0284 18.3438 30.8423 18.2002 30.7647 17.9132L30.6018 16.645C30.0898 17.2112 29.5158 17.6689 28.8797 18.018C28.2436 18.3593 27.5145 18.5299 26.6922 18.5299C26.0484 18.5299 25.4783 18.4252 24.9818 18.2158C24.4931 17.9986 24.082 17.696 23.7484 17.3082C23.4149 16.9203 23.1628 16.451 22.9921 15.9003C22.8292 15.3495 22.7478 14.7406 22.7478 14.0735V6.55691H24.8189V14.0735C24.8189 14.9656 25.0206 15.6559 25.424 16.1446C25.8351 16.6333 26.4595 16.8777 27.2973 16.8777C27.9101 16.8777 28.4802 16.7342 29.0077 16.4472C29.5429 16.1524 30.0355 15.749 30.4854 15.2371V6.55691H32.5566ZM39.9246 18.5299C38.9938 18.5299 38.2762 18.2701 37.772 17.7503C37.2756 17.2306 37.0273 16.4821 37.0273 15.5047V8.29061H35.6078C35.4837 8.29061 35.379 8.25571 35.2936 8.18589C35.2083 8.10832 35.1657 7.99197 35.1657 7.83682V7.0107L37.0972 6.76635L37.5742 3.12442C37.5975 3.00806 37.6479 2.91498 37.7255 2.84516C37.8108 2.76759 37.9194 2.72881 38.0513 2.72881H39.0985V6.78962H42.5077V8.29061H39.0985V15.365C39.0985 15.8615 39.2187 16.23 39.4592 16.4704C39.6997 16.7109 40.0099 16.8311 40.39 16.8311C40.6072 16.8311 40.7934 16.804 40.9485 16.7497C41.1114 16.6876 41.2511 16.6217 41.3674 16.5519C41.4838 16.4821 41.5807 16.42 41.6583 16.3657C41.7436 16.3036 41.8173 16.2726 41.8794 16.2726C41.988 16.2726 42.0849 16.3386 42.1703 16.4704L42.7753 17.4594C42.4185 17.793 41.988 18.0567 41.4838 18.2507C40.9796 18.4368 40.4598 18.5299 39.9246 18.5299ZM47.0781 8.91893C47.4505 8.1122 47.9081 7.48388 48.4511 7.03397C48.9941 6.5763 49.6573 6.34747 50.4408 6.34747C50.689 6.34747 50.9256 6.37462 51.1506 6.42892C51.3833 6.48322 51.5888 6.56855 51.7673 6.6849L51.616 8.23243C51.5695 8.42636 51.4531 8.52332 51.2669 8.52332C51.1583 8.52332 50.9993 8.50005 50.7899 8.45351C50.5804 8.40697 50.3438 8.3837 50.0801 8.3837C49.7078 8.3837 49.3742 8.438 49.0794 8.54659C48.7924 8.65519 48.5326 8.81809 48.2999 9.03529C48.0749 9.24473 47.8693 9.50847 47.6832 9.82651C47.5048 10.1368 47.3419 10.4936 47.1945 10.897V18.3438H45.1117V6.55691H46.2985C46.5235 6.55691 46.6786 6.59958 46.764 6.6849C46.8493 6.77023 46.9075 6.91761 46.9385 7.12705L47.0781 8.91893ZM61.4655 11.1646C61.4655 10.6837 61.3957 10.2454 61.2561 9.84978C61.1242 9.44641 60.9264 9.10122 60.6627 8.81421C60.4067 8.51945 60.0925 8.29449 59.7202 8.13935C59.3478 7.97645 58.9251 7.895 58.4519 7.895C57.459 7.895 56.6717 8.18589 56.0899 8.76767C55.5159 9.34169 55.159 10.1407 55.0194 11.1646H61.4655ZM63.141 16.6915C62.8851 17.0018 62.5786 17.2733 62.2218 17.506C61.865 17.7309 61.481 17.9171 61.0699 18.0645C60.6665 18.2119 60.2477 18.3205 59.8133 18.3903C59.3789 18.4679 58.9483 18.5066 58.5217 18.5066C57.7072 18.5066 56.9548 18.3709 56.2644 18.0994C55.5818 17.8201 54.9884 17.4168 54.4842 16.8893C53.9877 16.3541 53.5999 15.6947 53.3206 14.9113C53.0414 14.1278 52.9017 13.228 52.9017 12.2118C52.9017 11.3896 53.0258 10.6216 53.2741 9.90796C53.53 9.19431 53.8946 8.57762 54.3678 8.0579C54.841 7.53042 55.4189 7.1193 56.1015 6.82453C56.7841 6.522 57.5521 6.37074 58.4054 6.37074C59.1112 6.37074 59.7628 6.49098 60.3601 6.73145C60.9652 6.96416 61.4849 7.30547 61.9193 7.75538C62.3615 8.19753 62.7066 8.74828 62.9549 9.40763C63.2031 10.0592 63.3272 10.8039 63.3272 11.6417C63.3272 11.9675 63.2923 12.1847 63.2225 12.2933C63.1527 12.4018 63.0208 12.4561 62.8269 12.4561H54.9496C54.9729 13.2008 55.0737 13.8485 55.2521 14.3993C55.4383 14.95 55.6943 15.4116 56.0201 15.7839C56.3459 16.1485 56.7337 16.4239 57.1836 16.61C57.6335 16.7885 58.1377 16.8777 58.6962 16.8777C59.216 16.8777 59.662 16.8195 60.0343 16.7031C60.4144 16.579 60.7402 16.4472 61.0117 16.3075C61.2832 16.1679 61.5082 16.0399 61.6866 15.9236C61.8728 15.7994 62.0318 15.7374 62.1636 15.7374C62.3343 15.7374 62.4662 15.8033 62.5593 15.9352L63.141 16.6915Z" fill="#D8D8D8"/>
<path d="M42.7716 38.8714C42.9304 38.8714 43.0671 38.9331 43.1818 39.0566L44.2934 40.2741C43.517 41.1916 42.5686 41.9018 41.4482 42.4047C40.3366 42.9076 38.9956 43.159 37.4253 43.159C36.049 43.159 34.8006 42.9208 33.6802 42.4444C32.5686 41.968 31.6158 41.3019 30.8218 40.4461C30.0366 39.5904 29.4279 38.567 28.9956 37.376C28.5633 36.185 28.3471 34.8749 28.3471 33.4457C28.3471 32.0165 28.5721 30.7064 29.022 29.5153C29.4808 28.3243 30.1204 27.301 30.9409 26.4452C31.7614 25.5894 32.7406 24.9234 33.8787 24.4469C35.0256 23.9705 36.2916 23.7323 37.6767 23.7323C39.0265 23.7323 40.2263 23.9529 41.2762 24.394C42.326 24.8351 43.2391 25.4218 44.0155 26.1541L43.0892 27.4642C43.0274 27.5612 42.948 27.6406 42.851 27.7024C42.7627 27.7641 42.6436 27.795 42.4937 27.795C42.326 27.795 42.1275 27.7112 41.8982 27.5436C41.6776 27.3759 41.3821 27.1907 41.0115 26.9878C40.6498 26.776 40.1999 26.5864 39.6617 26.4187C39.1235 26.2511 38.4531 26.1673 37.6502 26.1673C36.7062 26.1673 35.8417 26.3349 35.0565 26.6702C34.2713 26.9966 33.592 27.473 33.0185 28.0994C32.4539 28.7169 32.0128 29.4801 31.6952 30.3888C31.3864 31.2886 31.232 32.3076 31.232 33.4457C31.232 34.6014 31.3952 35.6292 31.7217 36.5291C32.0481 37.4289 32.498 38.1921 33.0715 38.8184C33.6449 39.4448 34.3198 39.9212 35.0962 40.2476C35.8725 40.5741 36.7107 40.7373 37.6105 40.7373C38.1575 40.7373 38.6471 40.7064 39.0794 40.6447C39.5206 40.5741 39.922 40.4726 40.2837 40.3403C40.6542 40.2079 41.0027 40.0403 41.3291 39.8374C41.6555 39.6257 41.9776 39.3742 42.2952 39.0831C42.3657 39.0214 42.4407 38.9728 42.5201 38.9375C42.5995 38.8934 42.6833 38.8714 42.7716 38.8714ZM50.0371 23.4147V42.9473H47.4434V23.4147H50.0371ZM63.4229 34.7293C63.4229 34.2176 63.3479 33.7456 63.198 33.3133C63.0568 32.881 62.8451 32.5061 62.5628 32.1885C62.2804 31.8709 61.9364 31.6239 61.5305 31.4474C61.1247 31.271 60.6571 31.1828 60.1278 31.1828C59.0427 31.1828 58.1869 31.4959 57.5605 32.1223C56.943 32.7487 56.5504 33.6177 56.3827 34.7293H63.4229ZM65.5535 41.0284C65.2359 41.399 64.8698 41.721 64.4551 41.9945C64.0405 42.2591 63.5994 42.4753 63.1318 42.6429C62.6642 42.8105 62.179 42.934 61.6761 43.0134C61.1821 43.0928 60.6924 43.1325 60.2072 43.1325C59.2809 43.1325 58.4207 42.9781 57.6267 42.6694C56.8415 42.3518 56.1578 41.893 55.5755 41.2931C55.0021 40.6844 54.5521 39.9345 54.2257 39.0434C53.9081 38.1435 53.7493 37.1113 53.7493 35.9468C53.7493 35.0116 53.8949 34.1426 54.186 33.3398C54.4771 32.5282 54.8918 31.8224 55.4299 31.2225C55.9769 30.6225 56.643 30.1506 57.4282 29.8065C58.2134 29.4624 59.0956 29.2904 60.0749 29.2904C60.8953 29.2904 61.6496 29.4271 62.3378 29.7006C63.0347 29.9653 63.6347 30.3535 64.1375 30.8652C64.6404 31.3768 65.033 32.0076 65.3153 32.7575C65.6064 33.5074 65.752 34.3632 65.752 35.3248C65.752 35.7218 65.7079 35.9909 65.6197 36.1321C65.5315 36.2644 65.3682 36.3306 65.13 36.3306H56.3166C56.343 37.1334 56.4577 37.8348 56.6607 38.4347C56.8636 39.0258 57.1415 39.5198 57.4944 39.9168C57.8561 40.3138 58.284 40.6094 58.778 40.8035C59.272 40.9975 59.8234 41.0946 60.4322 41.0946C61.0056 41.0946 61.4997 41.0284 61.9143 40.8961C62.3378 40.7638 62.6995 40.6226 62.9995 40.4726C63.3082 40.3138 63.5641 40.1682 63.767 40.0359C63.9787 39.9036 64.164 39.8374 64.3228 39.8374C64.5345 39.8374 64.6977 39.9168 64.8124 40.0756L65.5535 41.0284ZM71.7546 32.0826C72.1869 31.2004 72.7074 30.5079 73.3161 30.005C73.9249 29.5021 74.6571 29.2507 75.5129 29.2507C75.804 29.2507 76.0775 29.286 76.3334 29.3565C76.598 29.4183 76.8274 29.5153 77.0215 29.6477L76.8495 31.593C76.7877 31.8312 76.6421 31.9503 76.4128 31.9503C76.2893 31.9503 76.104 31.9282 75.857 31.8841C75.6099 31.8312 75.3453 31.8047 75.063 31.8047C74.6483 31.8047 74.2822 31.8665 73.9646 31.99C73.647 32.1047 73.3603 32.2811 73.1044 32.5193C72.8574 32.7487 72.6368 33.0354 72.4427 33.3795C72.2487 33.7148 72.0678 34.0985 71.9002 34.5308V42.9473H69.3197V29.5021H70.8018C71.0841 29.5021 71.2738 29.555 71.3708 29.6609C71.4767 29.758 71.5517 29.9344 71.5958 30.1903L71.7546 32.0826ZM82.3866 23.4147V34.8352H82.9954C83.1806 34.8352 83.335 34.8087 83.4585 34.7558C83.582 34.7028 83.71 34.597 83.8423 34.4382L87.8653 30.005C87.9888 29.8374 88.1255 29.7138 88.2755 29.6344C88.4255 29.5462 88.6151 29.5021 88.8445 29.5021H91.2001L86.4493 34.7028C86.1934 35.0293 85.9199 35.2807 85.6288 35.4572C85.7964 35.5718 85.942 35.7042 86.0655 35.8542C86.1978 36.0041 86.3258 36.1673 86.4493 36.3438L91.5044 42.9473H89.1886C88.9769 42.9473 88.7916 42.912 88.6328 42.8414C88.4828 42.7708 88.3461 42.6429 88.2226 42.4576L84.0673 37.0584C83.9349 36.8555 83.8026 36.7276 83.6703 36.6746C83.5379 36.6129 83.3394 36.582 83.0748 36.582H82.3866V42.9473H79.8061V23.4147H82.3866Z" fill="#D8D8D8"/>
<path d="M90.7186 8.65327C90.6565 8.7386 90.5945 8.80453 90.5324 8.85107C90.4703 8.89762 90.385 8.92089 90.2764 8.92089C90.1601 8.92089 90.0321 8.87434 89.8924 8.78126C89.7528 8.68042 89.5783 8.57182 89.3688 8.45546C89.1672 8.33911 88.9151 8.23439 88.6125 8.1413C88.3178 8.04046 87.9532 7.99004 87.5188 7.99004C86.937 7.99004 86.425 8.09476 85.9829 8.3042C85.5407 8.50588 85.1684 8.80065 84.8659 9.1885C84.5711 9.57636 84.3462 10.0457 84.191 10.5964C84.0436 11.1472 83.9699 11.7638 83.9699 12.4465C83.9699 13.1601 84.0514 13.7962 84.2143 14.3547C84.3772 14.9055 84.606 15.3709 84.9008 15.751C85.2033 16.1233 85.564 16.4103 85.9829 16.612C86.4095 16.8059 86.8866 16.9029 87.4141 16.9029C87.9183 16.9029 88.3333 16.8447 88.6591 16.7284C88.9849 16.6042 89.2525 16.4685 89.4619 16.3211C89.6791 16.1737 89.8575 16.0419 89.9972 15.9255C90.1446 15.8014 90.2881 15.7393 90.4277 15.7393C90.5983 15.7393 90.7302 15.8053 90.8233 15.9371L91.4051 16.6935C91.1491 17.0115 90.8582 17.283 90.5324 17.5079C90.2066 17.7329 89.8537 17.9229 89.4736 18.0781C89.1012 18.2255 88.7095 18.3341 88.2984 18.4039C87.8873 18.4737 87.4684 18.5086 87.0417 18.5086C86.3048 18.5086 85.6183 18.3729 84.9822 18.1014C84.3539 17.8299 83.807 17.4381 83.3416 16.9262C82.8762 16.4064 82.5116 15.7704 82.2479 15.0179C81.9841 14.2655 81.8523 13.4083 81.8523 12.4465C81.8523 11.5699 81.9725 10.7593 82.213 10.0146C82.4612 9.26995 82.818 8.63 83.2834 8.09476C83.7566 7.55177 84.3345 7.12901 85.0171 6.82648C85.7075 6.52396 86.4987 6.3727 87.3908 6.3727C88.2208 6.3727 88.95 6.50844 89.5783 6.77994C90.2144 7.04368 90.7768 7.4199 91.2654 7.90859L90.7186 8.65327ZM96.1766 8.12967C96.6808 7.59443 97.2393 7.16779 97.8521 6.84975C98.4649 6.53172 99.1708 6.3727 99.9698 6.3727C100.614 6.3727 101.18 6.48129 101.669 6.69849C102.165 6.90793 102.576 7.21046 102.902 7.60607C103.235 7.99392 103.488 8.46322 103.658 9.01397C103.829 9.56472 103.914 10.1737 103.914 10.8408V18.3457H101.831V10.8408C101.831 9.9487 101.626 9.25832 101.215 8.76962C100.811 8.27317 100.195 8.02495 99.3647 8.02495C98.7519 8.02495 98.1779 8.17233 97.6427 8.4671C97.1152 8.76187 96.6265 9.16136 96.1766 9.66556V18.3457H94.0938V1.2065H96.1766V8.12967Z" fill="#D8D8D8"/>
<path d="M74.3045 10.448C74.1042 10.4104 73.8976 10.3917 73.6848 10.3917C73.2967 10.3917 72.9336 10.4762 72.5956 10.6452C72.2575 10.8142 71.9633 11.0427 71.7129 11.3306C71.4688 11.6186 71.2748 11.9503 71.1308 12.3259C70.9868 12.6953 70.9148 13.0802 70.9148 13.4809C70.9148 13.8815 70.9993 14.1945 71.1683 14.4198C71.3436 14.6389 71.5971 14.7485 71.9289 14.7485C72.0917 14.7485 72.2544 14.7234 72.4172 14.6734C72.5862 14.6233 72.7458 14.5356 72.896 14.4104C73.0463 14.279 73.184 14.1068 73.3092 13.894C73.4344 13.6812 73.5377 13.4151 73.619 13.0959L74.3045 10.448ZM75.4031 12.8518C75.3029 13.2524 75.2528 13.581 75.2528 13.8377C75.2591 14.0881 75.2998 14.2884 75.3749 14.4386C75.45 14.5826 75.5564 14.6827 75.6942 14.7391C75.8319 14.7954 75.9884 14.8236 76.1636 14.8236C76.4266 14.8236 76.6738 14.7422 76.9054 14.5795C77.1433 14.4104 77.3499 14.1757 77.5251 13.8752C77.7004 13.5748 77.8381 13.218 77.9383 12.8048C78.0447 12.3917 78.0979 11.941 78.0979 11.4527C78.0979 10.6389 77.9696 9.92218 77.7129 9.30246C77.4626 8.68274 77.1089 8.16631 76.6519 7.75316C76.1949 7.33376 75.6503 7.02077 75.0181 6.8142C74.3921 6.60136 73.7036 6.49495 72.9524 6.49495C72.1261 6.49495 71.3624 6.65144 70.6613 6.96443C69.9602 7.27116 69.3499 7.69369 68.8303 8.23203C68.317 8.77038 67.9133 9.40574 67.619 10.1381C67.3311 10.8705 67.1871 11.6593 67.1871 12.5043C67.1871 13.5309 67.3467 14.4355 67.666 15.218C67.9852 15.9942 68.4234 16.6452 68.9805 17.171C69.5377 17.6906 70.1918 18.0818 70.943 18.3447C71.7004 18.6076 72.5173 18.7391 73.3937 18.7391C73.8757 18.7391 74.3264 18.7109 74.7458 18.6546C75.1652 18.6045 75.5502 18.5325 75.9007 18.4386C76.2513 18.351 76.5705 18.2477 76.8585 18.1288C77.1464 18.0161 77.4031 17.894 77.6284 17.7626C77.7912 17.6687 77.9352 17.6405 78.0604 17.678C78.1856 17.7156 78.2763 17.8095 78.3327 17.9597L78.6519 18.7954C78.0009 19.2211 77.2403 19.5685 76.3702 19.8377C75.5001 20.1068 74.5079 20.2414 73.3937 20.2414C72.2607 20.2414 71.2122 20.063 70.2482 19.7062C69.2841 19.3494 68.4485 18.8361 67.7411 18.1663C67.04 17.5028 66.4892 16.6921 66.0885 15.7344C65.6942 14.7766 65.497 13.7 65.497 12.5043C65.497 11.8345 65.5815 11.1835 65.7505 10.5513C65.9258 9.91905 66.173 9.3275 66.4923 8.77664C66.8115 8.21952 67.1965 7.70934 67.6472 7.24612C68.0979 6.7829 68.5987 6.3854 69.1496 6.05363C69.7004 5.72186 70.2951 5.46521 70.9336 5.28368C71.5784 5.09588 72.2513 5.00199 72.9524 5.00199C73.8413 5.00199 74.6926 5.15222 75.5064 5.45269C76.3264 5.7469 77.0494 6.17257 77.6754 6.72969C78.3076 7.28055 78.8115 7.95661 79.1871 8.75786C79.5627 9.55285 79.7505 10.4511 79.7505 11.4527C79.7505 12.1225 79.6503 12.7516 79.45 13.34C79.256 13.9222 78.9805 14.4292 78.6237 14.8611C78.2732 15.2931 77.8569 15.6342 77.3749 15.8846C76.8992 16.1288 76.3796 16.2508 75.8162 16.2508C75.3843 16.2508 75.0025 16.1507 74.6707 15.9503C74.3389 15.75 74.1104 15.4277 73.9852 14.9832C73.6159 15.4339 73.2247 15.7563 72.8115 15.9503C72.3984 16.1444 71.9508 16.2414 71.4688 16.2414C71.0744 16.2414 70.7302 16.1726 70.4359 16.0349C70.148 15.8971 69.9039 15.7093 69.7036 15.4715C69.5095 15.2273 69.3624 14.9425 69.2622 14.617C69.1683 14.2852 69.1214 13.9253 69.1214 13.5372C69.1214 13.1804 69.1652 12.8205 69.2528 12.4574C69.3467 12.0881 69.4845 11.7344 69.666 11.3964C69.8475 11.0521 70.0729 10.7328 70.342 10.4386C70.6175 10.1381 70.9367 9.87836 71.2998 9.65927C71.6691 9.43391 72.0823 9.25864 72.5392 9.13344C73.0025 9.00199 73.5095 8.93626 74.0604 8.93626C74.5486 8.93626 74.9649 8.97382 75.3092 9.04894C75.6535 9.12405 75.9852 9.23047 76.3045 9.36819L75.4031 12.8518Z" fill="#D8D8D8"/>
<g clip-path="url(#clip0_1530_886)">
<path d="M21.1571 10.788C21.1571 16.2895 16.692 20.7508 11.1824 20.7508C5.67275 20.7508 1.20768 16.2895 1.20768 10.788C1.20768 5.28638 5.67275 0.825108 11.1824 0.825108C16.692 0.825108 21.1571 5.28638 21.1571 10.788Z" fill="#D8D8D8" stroke="#A4A4A4" stroke-width="1.43342"/>
<path d="M12.3079 9.66222C11.7263 9.08138 10.9436 8.74604 10.1215 8.72554C9.29938 8.70504 8.50083 9.00095 7.89103 9.55208L7.775 9.66222L5.96211 11.4737C5.37168 12.0646 5.03562 12.8624 5.02555 13.6971C5.01549 14.5319 5.33222 15.3375 5.90823 15.9424C6.48425 16.5472 7.27399 16.9034 8.10912 16.9351C8.94425 16.9667 9.75873 16.6713 10.3789 16.1117L10.4943 16.0016L11.8546 14.6428C11.9696 14.5275 12.0364 14.3729 12.0413 14.2103C12.0463 14.0477 11.9891 13.8893 11.8814 13.7673C11.7737 13.6452 11.6235 13.5687 11.4614 13.5533C11.2992 13.5379 11.1373 13.5847 11.0085 13.6842L10.9482 13.7373L9.58789 15.0961C9.23526 15.4504 8.75834 15.6536 8.25827 15.6624C7.75821 15.6713 7.27435 15.4853 6.90934 15.1437C6.54432 14.8022 6.32686 14.3321 6.30309 13.833C6.27932 13.334 6.45111 12.8454 6.78201 12.4707L6.86856 12.3792L8.68144 10.5683C8.86003 10.3899 9.07205 10.2483 9.3054 10.1518C9.53875 10.0552 9.78885 10.0055 10.0414 10.0055C10.294 10.0055 10.5441 10.0552 10.7775 10.1518C11.0108 10.2483 11.2228 10.3899 11.4014 10.5683C11.5217 10.6884 11.6848 10.7558 11.8549 10.7557C12.0249 10.7557 12.188 10.6881 12.3082 10.568C12.4284 10.4478 12.4959 10.2849 12.4958 10.115C12.4958 9.94517 12.4281 9.78228 12.3079 9.66222ZM16.3875 5.58709C15.806 5.00626 15.0232 4.67091 14.2011 4.65041C13.379 4.62991 12.5805 4.92583 11.9707 5.47695L11.8546 5.58709L10.495 6.94653C10.38 7.06177 10.3133 7.21639 10.3083 7.37901C10.3033 7.54162 10.3605 7.70003 10.4682 7.82206C10.5759 7.94408 10.7261 8.02058 10.8882 8.03601C11.0504 8.05144 11.2123 8.00464 11.3412 7.90512L11.4014 7.85197L12.7611 6.49381C13.1143 6.14326 13.5899 5.94323 14.0878 5.9358C14.5857 5.92837 15.067 6.11412 15.4306 6.45398C15.7941 6.79383 16.0116 7.26129 16.0371 7.75801C16.0627 8.25473 15.8944 8.74199 15.5676 9.11729L15.4811 9.2095L13.6675 11.021C13.3069 11.3812 12.8178 11.5835 12.3079 11.5835C11.7979 11.5835 11.3088 11.3812 10.9482 11.021C10.8887 10.9615 10.818 10.9143 10.7402 10.8821C10.6625 10.8499 10.5791 10.8333 10.4949 10.8333C10.4107 10.8332 10.3273 10.8498 10.2495 10.8819C10.1717 10.9141 10.101 10.9612 10.0414 11.0207C9.98187 11.0801 9.93462 11.1507 9.90237 11.2284C9.87012 11.3061 9.8535 11.3894 9.85347 11.4735C9.85344 11.5576 9.87 11.6409 9.90219 11.7186C9.93439 11.7963 9.98159 11.867 10.0411 11.9265C10.6226 12.5073 11.4054 12.8426 12.2275 12.8631C13.0496 12.8836 13.8481 12.5877 14.4579 12.0366L14.5746 11.9265L16.3875 10.1149C16.9884 9.51453 17.326 8.70031 17.326 7.85133C17.326 7.00236 16.9884 6.1875 16.3875 5.58709Z" fill="#5E5E5E"/>
</g>
<defs>
<clipPath id="clip0_1530_886">
<rect width="21.3828" height="21.3591" fill="white" transform="matrix(-1 0 0 1 21.8757 0.109375)"/>
</clipPath>
</defs>
</svg>
