<svg width="100" height="100" viewBox="0 0 100 100" fill="none" xmlns="http://www.w3.org/2000/svg">
<rect opacity="0.25" width="100" height="100" rx="20.8955" fill="#C7D3FF"/>
<path d="M72.6843 59.1383C72.1453 58.5984 71.4894 58.3286 70.7181 58.3286H54.7309C54.3263 59.4081 53.6465 60.2948 52.6923 60.9887C51.7376 61.6828 50.6727 62.03 49.4969 62.03C48.3211 62.03 47.2558 61.6827 46.3017 60.9887C45.3472 60.2948 44.6679 59.4082 44.263 58.3286H28.1493C27.3783 58.3286 26.7228 58.5984 26.1828 59.1383C25.6429 59.6777 25.3731 60.3332 25.3731 61.1045V70.3586C25.3731 71.1294 25.6429 71.7857 26.1828 72.3247C26.7227 72.8644 27.3782 73.1341 28.1493 73.1341H70.7185C71.4894 73.1341 72.1453 72.8644 72.6846 72.3247C73.2247 71.785 73.4943 71.1294 73.4943 70.3586V61.1045C73.4943 60.3332 73.2247 59.6784 72.6843 59.1383ZM61.8405 68.8837C61.4737 69.2501 61.0397 69.4335 60.5385 69.4335C60.0372 69.4335 59.6038 69.2501 59.2372 68.8837C58.8711 68.5177 58.6881 68.0837 58.6881 67.5824C58.6881 67.0811 58.8711 66.6469 59.2372 66.2811C59.6038 65.9151 60.0372 65.7313 60.5385 65.7313C61.0397 65.7313 61.4736 65.915 61.8405 66.2811C62.2064 66.6468 62.3896 67.0811 62.3896 67.5824C62.3896 68.0837 62.2064 68.5176 61.8405 68.8837ZM69.2432 68.8837C68.8772 69.2501 68.4432 69.4335 67.9418 69.4335C67.4406 69.4335 67.007 69.2501 66.6405 68.8837C66.2746 68.5177 66.0915 68.0837 66.0915 67.5824C66.0915 67.0811 66.2746 66.6469 66.6405 66.2811C67.0069 65.9151 67.4405 65.7313 67.9418 65.7313C68.4431 65.7313 68.8771 65.915 69.2432 66.2811C69.6096 66.6468 69.7929 67.0811 69.7929 67.5824C69.7929 68.0837 69.6099 68.5176 69.2432 68.8837Z" fill="#7C8298"/>
<path d="M62.3906 41.6738H54.9873V28.7177C54.9873 28.2165 54.8041 27.7826 54.4379 27.4164C54.0716 27.0504 53.6377 26.8667 53.1366 26.8667L45.7327 26.8667C45.2315 26.8667 44.798 27.0503 44.4314 27.4164C44.0653 27.7825 43.8823 28.2164 43.8823 28.7177V41.6738H36.4788C35.6688 41.6738 35.0999 42.0596 34.7727 42.8305C34.4448 43.5823 34.58 44.2476 35.1775 44.8261L48.1336 57.7819C48.4809 58.1483 48.9141 58.3315 49.4349 58.3315C49.9551 58.3315 50.3889 58.1483 50.7361 57.7819L63.6918 44.8261C64.2896 44.2476 64.4244 43.5827 64.0969 42.8305C63.7688 42.0592 63.2001 41.6738 62.3906 41.6738Z" fill="white"/>
</svg>
