<svg width="50" height="50" viewBox="0 0 50 50" fill="none" xmlns="http://www.w3.org/2000/svg">
<rect opacity="0.25" width="50" height="50" rx="14" fill="#C7D3FF"/>
<path fill-rule="evenodd" clip-rule="evenodd" d="M33.4782 20.2596H23.0458L17.8715 21.6461L19.1162 35.199C19.1809 35.9023 19.7783 36.4367 20.4997 36.4367H30.7226C31.4439 36.4367 32.0413 35.9023 32.1061 35.199L33.4782 20.2596ZM21.2587 31.8158L20.4929 23.4778H22.0492L22.815 31.8158H21.2587ZM24.847 23.4778H26.3969L26.3759 31.8158H24.826L24.847 23.4778ZM28.8952 23.4778H30.4516L29.6857 31.8158H28.1294L28.8952 23.4778Z" fill="white"/>
<path fill-rule="evenodd" clip-rule="evenodd" d="M17.2906 17.9138C16.5737 18.1059 15.9449 18.695 16.0999 19.2734L16.5672 21.0175C16.5943 21.1184 16.6873 21.187 16.8111 21.1538L33.7742 16.6086C33.8981 16.5754 33.9442 16.4694 33.9172 16.3686L33.4499 14.6245C33.2935 14.041 32.4557 13.8504 31.7389 14.0424L27.305 15.2305L27.0352 14.2235C26.9086 13.7511 26.4157 13.466 25.9431 13.5926L22.0844 14.6265C21.6116 14.7538 21.3278 15.2456 21.4545 15.7183L21.7244 16.7258L17.2906 17.9138ZM22.1781 15.5249L22.4479 16.5319L26.5815 15.4243L26.3116 14.4168C26.291 14.3397 26.2134 14.2955 26.1365 14.3161L22.2788 15.3498C22.2028 15.3702 22.1577 15.4487 22.1781 15.5249Z" fill="#7C8298"/>
</svg>
