<svg width="50" height="50" viewBox="0 0 50 50" fill="none" xmlns="http://www.w3.org/2000/svg">
<rect opacity="0.25" width="50" height="50" rx="14" fill="#C7D3FF"/>
<g clip-path="url(#clip0_1530_1224)">
<path d="M23.4727 22.9932C22.4945 22.9932 21.5383 22.7168 20.7245 22.1989L12.9721 17.2656L12.9707 27.5841C12.9707 28.6385 13.8662 29.4932 14.9708 29.4932H24.899C24.7578 28.4361 24.6791 27.6869 24.6934 26.7756C24.6996 26.3802 24.9207 26.0223 25.2607 25.8204L30.2294 22.8697C30.6031 22.6478 31.0681 22.6476 31.442 22.8693L33.8237 24.2815C33.8897 24.3206 33.9732 24.2731 33.9732 24.1964V17.2656L26.2208 22.1989C25.407 22.7168 24.4508 22.9932 23.4727 22.9932Z" fill="#7C8298"/>
<path d="M12.9669 14.7202C12.9669 15.136 12.9669 15.9766 13.6262 16.4766L20.7984 21.0407C21.6122 21.5586 22.5684 21.8349 23.5466 21.8349C24.5247 21.8349 25.4809 21.5586 26.2948 21.0407L33.4669 16.4766C33.9669 15.9766 33.9679 15.136 33.9679 14.7202C33.9679 14.0333 33.7329 13.4766 33.0133 13.4766H14.2697C13.5502 13.4766 12.9669 14.0333 12.9669 14.7202Z" fill="white"/>
<path fill-rule="evenodd" clip-rule="evenodd" d="M26.0221 26.4346L30.2585 23.9363C30.6166 23.7251 31.0614 23.726 31.4186 23.9387L35.5887 26.422C35.9568 26.6412 36.1719 27.0509 36.1362 27.4778C35.7366 32.2591 34.6647 34.391 31.3505 36.2237C31.033 36.3993 30.6456 36.4 30.3256 36.2291C27.1542 34.5362 25.7691 32.756 25.4693 27.4592C25.4457 27.0418 25.6619 26.6469 26.0221 26.4346ZM30.2089 32.1833C30.0543 32.3564 29.7846 32.36 29.6254 32.1911L28.2273 30.7078C28.0834 30.5551 28.0835 30.3166 28.2277 30.1641L28.3699 30.0136C28.5248 29.8498 28.7851 29.8481 28.9421 30.01L29.6273 30.7166C29.7866 30.8809 30.0515 30.8764 30.2051 30.7068L32.7885 27.8553C32.9413 27.6867 33.2044 27.6811 33.3641 27.8432L33.4823 27.9631C33.629 28.112 33.6348 28.3492 33.4956 28.505L30.2089 32.1833Z" fill="white"/>
</g>
<defs>
<clipPath id="clip0_1530_1224">
<rect width="24" height="24" fill="white" transform="translate(12.9824 12.9844)"/>
</clipPath>
</defs>
</svg>
