<svg width="50" height="50" viewBox="0 0 50 50" fill="none" xmlns="http://www.w3.org/2000/svg">
<rect opacity="0.25" width="50" height="50" rx="14" fill="#C7D3FF"/>
<g clip-path="url(#clip0_1530_1234)">
<path d="M23.4712 17.8407C23.5233 17.845 23.5755 17.8449 23.6275 17.8405L25.0586 17.7184L31 17.276C31 16.8172 30.6281 16.4453 30.1693 16.4453H16.8776C16.4188 16.4453 16.0469 16.8172 16.0469 17.276L21.9883 17.7184L23.4712 17.8407Z" fill="#7C8298"/>
<path d="M23.466 15.738C23.4999 15.7408 23.534 15.7407 23.5679 15.7378L24.501 15.6582L28.375 15.3698C28.375 15.0706 28.1325 14.8281 27.8333 14.8281H19.1667C18.8675 14.8281 18.625 15.0706 18.625 15.3698L22.499 15.6582L23.466 15.738Z" fill="#7C8298"/>
<path d="M23.4755 14.1249C23.4999 14.1269 23.5245 14.1269 23.5489 14.1248L24.2219 14.0674L27.0156 13.8594C27.0156 13.6436 26.8407 13.4688 26.625 13.4688H20.375C20.1593 13.4688 19.9844 13.6436 19.9844 13.8594L22.7781 14.0674L23.4755 14.1249Z" fill="#7C8298"/>
<path d="M23.5 26.8281C23.0096 26.8281 22.5289 26.692 22.1113 26.435L13 20.8281V29.0781C13 29.9066 13.6716 30.5781 14.5 30.5781H25.3003C25.3617 30.5781 25.4064 30.5204 25.3899 30.4611C25.2709 30.034 25.0574 29.2853 25.0953 27.7225C25.1034 27.3868 25.3023 27.0867 25.6024 26.936L30.1091 24.6729C30.3746 24.5396 30.6876 24.54 30.9528 24.6741L33.864 26.1458C33.9263 26.1773 34 26.132 34 26.0621V20.8281L24.8888 26.435C24.4711 26.692 23.9904 26.8281 23.5 26.8281Z" fill="#7C8298"/>
<path d="M13.9623 18.5781H33.0377C33.5692 18.5781 34 19.009 34 19.5404C34 19.8746 33.8266 20.1848 33.542 20.3599L24.8887 25.6851C24.4711 25.9421 23.9904 26.0781 23.5 26.0781C23.0096 26.0781 22.5289 25.9421 22.1113 25.6851L13.458 20.3599C13.1734 20.1848 13 19.8746 13 19.5404C13 19.009 13.4308 18.5781 13.9623 18.5781Z" fill="white"/>
<path d="M35.2749 27.8467C35.2722 27.6751 35.1739 27.5219 35.0207 27.4444L30.7202 25.2835C30.5901 25.218 30.4364 25.218 30.3058 25.2835L26.0053 27.4444C25.8517 27.5219 25.7539 27.6751 25.7511 27.8467C25.7313 29.0847 25.9334 34.076 30.3575 35.5793C30.4563 35.613 30.5693 35.613 30.668 35.5793C35.0927 34.076 35.2948 29.0847 35.2749 27.8467ZM32.5041 30.0044L31.8128 30.678C31.7478 30.7417 31.7178 30.8331 31.7335 30.9226L31.8968 31.8736C31.9356 32.0992 31.6989 32.2713 31.4958 32.1648L30.6417 31.7158C30.5615 31.6733 30.465 31.6733 30.3847 31.7158L29.5306 32.1648C29.3281 32.2713 29.0914 32.0992 29.1297 31.8736L29.293 30.9226C29.3082 30.8331 29.2787 30.7417 29.2136 30.678L28.5224 30.0044C28.3586 29.8447 28.4491 29.566 28.6756 29.5332L29.6308 29.3944C29.7207 29.3814 29.7987 29.3247 29.8389 29.243L30.2661 28.3778C30.3677 28.1725 30.6602 28.1725 30.7617 28.3778L31.189 29.243C31.2291 29.3247 31.3071 29.381 31.3971 29.3944L32.3523 29.5332C32.5774 29.5665 32.6679 29.8447 32.5041 30.0044Z" fill="white"/>
<path d="M35.1171 32.6016C34.6709 33.5235 34.0596 34.3684 33.2539 35.0573L34.8237 36.627L35.4097 35.0582L36.9836 34.468L35.1171 32.6016Z" fill="white"/>
<path d="M25.929 32.6016L24.0625 34.468L25.636 35.0587L26.222 36.6275L27.7917 35.0577C26.9866 34.3688 26.3752 33.524 25.929 32.6016Z" fill="white"/>
</g>
<defs>
<clipPath id="clip0_1530_1234">
<rect width="24" height="24" fill="white" transform="translate(13 13)"/>
</clipPath>
</defs>
</svg>
