<svg width="50" height="50" viewBox="0 0 50 50" fill="none" xmlns="http://www.w3.org/2000/svg">
<rect opacity="0.25" width="50" height="50" rx="14" fill="#C7D3FF"/>
<path d="M34.2461 29.8438C34.7984 29.8438 35.2461 29.396 35.2461 28.8438C35.2461 28.2915 34.7984 27.8438 34.2461 27.8438C33.6938 27.8438 33.2461 28.2915 33.2461 28.8438C33.2461 29.396 33.6938 29.8438 34.2461 29.8438Z" fill="#7C8298"/>
<path d="M32.0645 33.0625C32.6167 33.0625 33.0645 32.6148 33.0645 32.0625C33.0645 31.5102 32.6167 31.0625 32.0645 31.0625C31.5122 31.0625 31.0645 31.5102 31.0645 32.0625C31.0645 32.6148 31.5122 33.0625 32.0645 33.0625Z" fill="#7C8298"/>
<path d="M34.998 26C35.5503 26 35.998 25.5523 35.998 25C35.998 24.4477 35.5503 24 34.998 24C34.4458 24 33.998 24.4477 33.998 25C33.998 25.5523 34.4458 26 34.998 26Z" fill="#7C8298"/>
<path d="M28.8262 35.25C29.3785 35.25 29.8262 34.8023 29.8262 34.25C29.8262 33.6977 29.3785 33.25 28.8262 33.25C28.2739 33.25 27.8262 33.6977 27.8262 34.25C27.8262 34.8023 28.2739 35.25 28.8262 35.25Z" fill="#7C8298"/>
<path d="M25.0008 34C23.5605 34.0017 22.1409 33.6578 20.8611 32.997C19.5813 32.3363 18.4788 31.378 17.6462 30.2028C16.8136 29.0276 16.2752 27.6697 16.0762 26.2432C15.8773 24.8167 16.0236 23.3633 16.5029 22.0051C16.9821 20.6469 17.7804 19.4236 18.8305 18.4379C19.8807 17.4522 21.1521 16.7329 22.5379 16.3405C23.9237 15.9481 25.3834 15.894 26.7944 16.1828C28.2055 16.4715 29.5266 17.0947 30.6468 18H29.0008C28.7356 18 28.4812 18.1054 28.2937 18.2929C28.1062 18.4804 28.0008 18.7348 28.0008 19C28.0008 19.2652 28.1062 19.5196 28.2937 19.7071C28.4812 19.8946 28.7356 20 29.0008 20H33.0008C33.266 20 33.5204 19.8946 33.7079 19.7071C33.8955 19.5196 34.0008 19.2652 34.0008 19V15C34.0008 14.7348 33.8955 14.4804 33.7079 14.2929C33.5204 14.1054 33.266 14 33.0008 14C32.7356 14 32.4812 14.1054 32.2937 14.2929C32.1062 14.4804 32.0008 14.7348 32.0008 15V16.531C30.6409 15.4067 29.0305 14.6263 27.3055 14.2555C25.5804 13.8847 23.7915 13.9346 22.0898 14.4008C20.3881 14.867 18.8236 15.7359 17.5284 16.9341C16.2332 18.1323 15.2454 19.6246 14.6484 21.2849C14.0515 22.9453 13.8629 24.7249 14.0985 26.4736C14.3342 28.2222 14.9872 29.8884 16.0024 31.3315C17.0177 32.7745 18.3653 33.9521 19.9315 34.7647C21.4977 35.5772 23.2364 36.0009 25.0008 36C25.266 36 25.5204 35.8946 25.7079 35.7071C25.8955 35.5196 26.0008 35.2652 26.0008 35C26.0008 34.7348 25.8955 34.4804 25.7079 34.2929C25.5204 34.1054 25.266 34 25.0008 34Z" fill="white"/>
<path d="M28.707 28.707C28.8945 28.5195 28.9998 28.2652 28.9998 28C28.9998 27.7348 28.8945 27.4805 28.707 27.293L26 24.586V19C26 18.7348 25.8946 18.4804 25.7071 18.2929C25.5196 18.1054 25.2652 18 25 18C24.7348 18 24.4804 18.1054 24.2929 18.2929C24.1054 18.4804 24 18.7348 24 19V25C24.0001 25.2652 24.1055 25.5195 24.293 25.707L27.293 28.707C27.4805 28.8945 27.7348 28.9998 28 28.9998C28.2652 28.9998 28.5195 28.8945 28.707 28.707Z" fill="white"/>
</svg>
