<svg width="50" height="50" viewBox="0 0 50 50" fill="none" xmlns="http://www.w3.org/2000/svg">
<rect opacity="0.25" width="50" height="50" rx="14" fill="#C7D3FF"/>
<path d="M35.1964 14H32.7857C32.3415 14 31.9821 14.3598 31.9821 14.8036C31.9821 15.2473 32.3415 15.6071 32.7857 15.6071H33.2034L24.7515 23.3545L14.8489 14.2131C14.5232 13.9129 14.0132 13.9325 13.7134 14.2586C13.4121 14.5846 13.4325 15.0931 13.7581 15.3941L24.2046 25.0369C24.3591 25.179 24.5545 25.25 24.7499 25.25C24.9446 25.25 25.1392 25.1798 25.293 25.0389L34.3928 16.6974V17.2143C34.3928 17.6581 34.7522 18.0179 35.1964 18.0179C35.6405 18.0179 35.9999 17.6581 35.9999 17.2143V14.8036C35.9999 14.3598 35.6405 14 35.1964 14Z" fill="white"/>
<path d="M24.7508 22.0368C25.1946 22.0368 25.5544 21.6771 25.5544 21.2333C25.5544 20.7895 25.1946 20.4297 24.7508 20.4297C24.307 20.4297 23.9473 20.7895 23.9473 21.2333C23.9473 21.6771 24.307 22.0368 24.7508 22.0368Z" fill="white"/>
<path d="M24.7496 19.625C25.1325 19.625 25.4621 19.3547 25.5374 18.9792L26.341 14.9613C26.3881 14.7251 26.3269 14.4803 26.1746 14.2943C26.0216 14.1079 25.794 14 25.5531 14H23.946C23.7051 14 23.4775 14.1079 23.3245 14.2943C23.1722 14.4803 23.111 14.7251 23.1581 14.9613L23.9617 18.9792C24.037 19.3547 24.3666 19.625 24.7496 19.625Z" fill="white"/>
<path d="M24.7494 33.2824C23.9261 33.2824 23.1211 33.0497 22.436 32.6137L15.9102 28.4609V34.8895C15.9102 35.7771 16.664 36.4967 17.5938 36.4967H31.9051C32.8349 36.4967 33.5887 35.7771 33.5887 34.8895V28.4609L27.0628 32.6137C26.3778 33.0497 25.5728 33.2824 24.7494 33.2824Z" fill="#7C8298"/>
<path d="M15.9102 27.1016C15.9102 27.4516 16.0934 27.7785 16.3985 27.9726L22.436 31.8146C23.1211 32.2506 23.9261 32.4833 24.7494 32.4833C25.5728 32.4833 26.3778 32.2506 27.0629 31.8146L33.1004 27.9726C33.4055 27.7785 33.5887 27.4516 33.5887 27.1016C33.5887 26.5234 33.3909 26.0547 32.7852 26.0547H17.0069C16.4012 26.0547 15.9102 26.5234 15.9102 27.1016Z" fill="white"/>
</svg>
