<svg width="62" height="62" viewBox="0 0 62 62" fill="none" xmlns="http://www.w3.org/2000/svg">
<g filter="url(#filter0_bdi_1530_1140)">
<rect x="6" y="1" width="50" height="50" rx="12" fill="url(#paint0_linear_1530_1140)" shape-rendering="crispEdges"/>
</g>
<g clip-path="url(#clip0_1530_1140)">
<path d="M38.1146 15.9964C38.2181 16.1324 38.2308 16.317 38.147 16.4659C38.0632 16.6149 37.8989 16.6999 37.7289 16.6821L37.3431 16.6435L37.176 17.0078C37.1048 17.1588 36.9529 17.2551 36.786 17.2551C36.6191 17.2551 36.4672 17.1588 36.396 17.0078L36.2289 16.6435L35.8431 16.6821C35.705 16.6957 35.5689 16.6415 35.4778 16.5368C35.3867 16.4321 35.352 16.2898 35.3846 16.1549C31.4846 16.3049 31.4289 19.0221 31.4289 19.1421C31.4289 19.1464 31.4246 19.1549 31.4246 19.1592C32.5517 19.2449 33.1431 19.6392 33.1431 19.7849C33.1431 19.9521 32.406 20.4278 31.0003 20.4278C29.5946 20.4278 28.8574 19.9521 28.8574 19.7849C28.8574 19.6392 29.4489 19.2449 30.576 19.1592C30.576 19.1549 30.5717 19.1464 30.5717 19.1421C30.5717 19.1035 30.6317 15.4521 35.3889 15.2935C35.3481 15.1564 35.3783 15.0081 35.4695 14.8979C35.5608 14.7878 35.7009 14.7304 35.8431 14.7449L36.2289 14.7835L36.396 14.4192C36.4672 14.2682 36.6191 14.1719 36.786 14.1719C36.9529 14.1719 37.1048 14.2682 37.176 14.4192L37.3431 14.7835L37.7289 14.7449C37.8989 14.7271 38.0632 14.8121 38.147 14.9611C38.2308 15.11 38.2181 15.2946 38.1146 15.4306L37.9003 15.7135L38.1146 15.9964Z" fill="white"/>
<path d="M31.0003 23.8529C32.4064 23.8529 33.1431 23.3755 33.1431 23.2101V20.8594C32.4676 21.1528 31.7366 21.2968 31.0003 21.2815C30.2639 21.2968 29.533 21.1528 28.8574 20.8594V23.2101C28.8574 23.3755 29.5941 23.8529 31.0003 23.8529Z" fill="white"/>
<path d="M34 21.8378C36.5444 22.7892 38.4881 24.8893 39.2401 27.4996L42.5714 25.5736L34 20.6172V21.8378Z" fill="#7C8298"/>
<path d="M33.1634 31.9984L40.6814 36.3415C40.8847 36.4606 40.9536 36.7215 40.8358 36.9255C40.718 37.1295 40.4577 37.2002 40.2529 37.0838L32.317 32.4985L31.9304 32.7351C31.6489 32.9074 31.3265 32.9985 30.9966 32.9985C30.6724 32.9985 30.3531 32.9105 30.075 32.744L29.6653 32.4985L21.7343 37.0838C21.5295 37.2002 21.2691 37.1295 21.1513 36.9255C21.0335 36.7215 21.1025 36.4606 21.3057 36.3415L28.8194 31.9984L19 26.3211V36.1001C19 36.9985 20 37.9984 20.8867 37.9984H41.1695C42 37.9985 43 36.9985 43 36.2267V26.3125L33.1634 31.9984Z" fill="#7C8298"/>
<path d="M21.1513 36.9255C21.2691 37.1295 21.5295 37.2002 21.7343 37.0838L29.6653 32.4985L28.8194 31.9984L21.3057 36.3415C21.1025 36.4606 21.0335 36.7215 21.1513 36.9255Z" fill="#7C8298"/>
<path d="M40.6814 36.3415L33.1634 31.9984L32.317 32.4985L40.2529 37.0838C40.4577 37.2002 40.718 37.1295 40.8358 36.9255C40.9536 36.7215 40.8847 36.4606 40.6814 36.3415Z" fill="#7C8298"/>
<path d="M27.9994 21.8389V20.6094L19.4121 25.5744L22.758 27.5085C23.5085 24.8952 25.4529 22.792 27.9994 21.8389Z" fill="#7C8298"/>
<path d="M27.6732 24.8694C26.7043 25.5142 25.9441 26.427 25.4853 27.4965C25.4332 27.6486 25.3003 27.7587 25.1412 27.7817C24.982 27.8047 24.8234 27.7367 24.7304 27.6056C24.6373 27.4744 24.6255 27.3023 24.6997 27.1597C25.2239 25.9376 26.0924 24.8945 27.1992 24.1575C27.3265 24.0725 27.4896 24.0618 27.627 24.1296C27.7643 24.1974 27.8551 24.3334 27.8651 24.4862C27.875 24.6391 27.8027 24.7856 27.6753 24.8707L27.6732 24.8694Z" fill="white"/>
<path fill-rule="evenodd" clip-rule="evenodd" d="M27.9997 22.7582C25.7803 23.6976 24.1269 25.6195 23.5293 27.9542L29.6754 31.5071L30.0751 31.7472C30.3531 31.9142 30.6724 32.0024 30.9967 32.0024C31.3265 32.0024 31.6488 31.9112 31.93 31.7388L32.3064 31.508L38.4693 27.9457C37.8692 25.6144 36.2166 23.6962 33.9997 22.7578V23.2168C33.9997 24.2025 32.4907 24.7168 30.9997 24.7168C29.5087 24.7168 27.9997 24.2025 27.9997 23.2168V22.7582ZM25.4853 27.4965C25.9441 26.427 26.7043 25.5142 27.6732 24.8694L27.6753 24.8707C27.8027 24.7856 27.875 24.6391 27.8651 24.4862C27.8551 24.3334 27.7643 24.1974 27.627 24.1296C27.4896 24.0618 27.3265 24.0725 27.1992 24.1575C26.0924 24.8945 25.2239 25.9376 24.6997 27.1597C24.6255 27.3023 24.6373 27.4744 24.7304 27.6056C24.8234 27.7367 24.982 27.8047 25.1412 27.7817C25.3003 27.7587 25.4332 27.6486 25.4853 27.4965Z" fill="white"/>
</g>
<defs>
<filter id="filter0_bdi_1530_1140" x="-6" y="-11" width="74" height="74" filterUnits="userSpaceOnUse" color-interpolation-filters="sRGB">
<feFlood flood-opacity="0" result="BackgroundImageFix"/>
<feGaussianBlur in="BackgroundImageFix" stdDeviation="6"/>
<feComposite in2="SourceAlpha" operator="in" result="effect1_backgroundBlur_1530_1140"/>
<feColorMatrix in="SourceAlpha" type="matrix" values="0 0 0 0 0 0 0 0 0 0 0 0 0 0 0 0 0 0 127 0" result="hardAlpha"/>
<feOffset dy="5"/>
<feGaussianBlur stdDeviation="3"/>
<feComposite in2="hardAlpha" operator="out"/>
<feColorMatrix type="matrix" values="0 0 0 0 0 0 0 0 0 0.04 0 0 0 0 0.04 0 0 0 0.24 0"/>
<feBlend mode="normal" in2="effect1_backgroundBlur_1530_1140" result="effect2_dropShadow_1530_1140"/>
<feBlend mode="normal" in="SourceGraphic" in2="effect2_dropShadow_1530_1140" result="shape"/>
<feColorMatrix in="SourceAlpha" type="matrix" values="0 0 0 0 0 0 0 0 0 0 0 0 0 0 0 0 0 0 127 0" result="hardAlpha"/>
<feOffset dy="2"/>
<feGaussianBlur stdDeviation="2"/>
<feComposite in2="hardAlpha" operator="arithmetic" k2="-1" k3="1"/>
<feColorMatrix type="matrix" values="0 0 0 0 0.4 0 0 0 0 0.4 0 0 0 0 0.4 0 0 0 0.3 0"/>
<feBlend mode="normal" in2="shape" result="effect3_innerShadow_1530_1140"/>
</filter>
<linearGradient id="paint0_linear_1530_1140" x1="31" y1="1" x2="31" y2="51" gradientUnits="userSpaceOnUse">
<stop stop-color="#4A4552" stop-opacity="0.88"/>
<stop offset="1" stop-color="#2D2933" stop-opacity="0.6"/>
</linearGradient>
<clipPath id="clip0_1530_1140">
<rect width="24" height="24" fill="white" transform="translate(19 14)"/>
</clipPath>
</defs>
</svg>
