<svg width="50" height="50" viewBox="0 0 50 50" fill="none" xmlns="http://www.w3.org/2000/svg">
<rect opacity="0.25" width="50" height="50" rx="14" fill="#C7D3FF"/>
<path d="M15.449 23.9375V32.107C15.449 33.1257 16.2717 33.9545 17.283 33.9545H34.547V24.1081H16.3112C16.0061 24.1081 15.715 24.0472 15.449 23.9375ZM30.4123 26.2334H31.8185V31.8291H30.4123V26.2334ZM24.7749 26.2415H26.8805C28.0457 26.2415 28.9937 27.1895 28.9937 28.3546V28.3621C28.9937 29.5273 28.0457 30.4753 26.8805 30.4753H26.1812V31.8291H24.7749V26.2415ZM19.5577 26.2556H21.9539L23.3382 31.4684L21.979 31.8291L21.7847 31.101H19.7258L19.5315 31.8291L18.1724 31.4681L19.5577 26.2556Z" fill="white"/>
<path d="M27.5877 28.3628V28.3553C27.5877 27.9655 27.2706 27.6484 26.8808 27.6484H26.1815V29.0696H26.8808C27.2707 29.0697 27.5877 28.7526 27.5877 28.3628Z" fill="white"/>
<path d="M20.8723 27.6641H20.6394L20.0994 29.697H21.4117L20.8723 27.6641Z" fill="white"/>
<path d="M30.1515 13H18.611V22.7033H34.5463V17.4456H30.1515V13Z" fill="#7C8298"/>
<path d="M18.6112 35.3594H34.5465V36.9973H18.6112V35.3594Z" fill="#7C8298"/>
<path d="M31.5584 13.0078V16.039H34.555L31.5584 13.0078Z" fill="white"/>
<path d="M16.3112 22.7013H17.2054V20.9688H16.3112C15.8358 20.9688 15.449 21.3555 15.449 21.8309V21.8392C15.449 22.3146 15.8358 22.7013 16.3112 22.7013Z" fill="#7C8298"/>
</svg>
