<svg width="50" height="50" viewBox="0 0 50 50" fill="none" xmlns="http://www.w3.org/2000/svg">
<rect opacity="0.25" width="50" height="50" rx="14" fill="#C7D3FF"/>
<g clip-path="url(#clip0_1530_1170)">
<path d="M23.4688 23.4854C22.4906 23.4854 21.5344 23.209 20.7206 22.691L12.9682 17.7578L12.9668 28.0762C12.9668 29.1306 13.8623 29.9854 14.9669 29.9854H24.6337C24.7303 24.189 30.2365 21.9866 33.9693 23.6867V17.7578L26.2169 22.691C25.4031 23.209 24.4469 23.4854 23.4688 23.4854Z" fill="#7C8298"/>
<path d="M12.9668 15.2124C12.9668 15.6282 12.9668 16.4688 13.6261 16.9688L20.7982 21.5328C21.6121 22.0507 22.5683 22.3271 23.5464 22.3271C24.5246 22.3271 25.4808 22.0507 26.2947 21.5328L33.4668 16.9688C33.9668 16.4688 33.9678 15.6282 33.9678 15.2124C33.9678 14.5255 33.7327 13.9688 33.0132 13.9688H14.2696C13.5501 13.9688 12.9668 14.5255 12.9668 15.2124Z" fill="white"/>
<path d="M31.2948 35.4922C34.4374 35.4922 36.9941 32.9355 36.9941 29.7929C36.9941 26.6503 34.4374 24.0935 31.2948 24.0935C28.1521 24.0935 25.5954 26.6502 25.5954 29.7929C25.5954 32.9355 28.1521 35.4922 31.2948 35.4922ZM32.13 26.2349L35.6879 29.7929L32.13 33.3508L31.3193 32.5401L34.0666 29.7928L31.3193 27.0455L32.13 26.2349ZM27.8801 27.0455L28.6907 26.2349L32.2487 29.7928L28.6907 33.3507L27.8801 32.5401L30.6274 29.7927L27.8801 27.0455Z" fill="white"/>
</g>
<defs>
<clipPath id="clip0_1530_1170">
<rect width="24" height="24" fill="white" transform="translate(12.9824 12.9844)"/>
</clipPath>
</defs>
</svg>
