<svg width="50" height="50" viewBox="0 0 50 50" fill="none" xmlns="http://www.w3.org/2000/svg">
<rect opacity="0.25" width="50" height="50" rx="14" fill="#C7D3FF"/>
<g clip-path="url(#clip0_1530_1180)">
<path d="M29.5163 32.0326C30.9254 32.0326 32.0678 30.8903 32.0678 29.4812C32.0678 28.072 30.9254 26.9297 29.5163 26.9297C28.1072 26.9297 26.9648 28.072 26.9648 29.4812C26.9648 30.8903 28.1072 32.0326 29.5163 32.0326Z" fill="white"/>
<path d="M36.3767 28.865H35.7216C35.4286 25.9245 33.0834 23.5793 30.143 23.2864V22.6312C30.143 22.2871 29.8643 22.0078 29.5196 22.0078C29.1749 22.0078 28.8962 22.2871 28.8962 22.6312V23.2864C25.9557 23.5793 23.6106 25.9245 23.3176 28.865H22.6624C22.3177 28.865 22.0391 29.1442 22.0391 29.4883C22.0391 29.8324 22.3177 30.1117 22.6624 30.1117H23.3176C23.6112 33.0522 25.9557 35.3973 28.8962 35.6903V36.3455C28.8962 36.6896 29.1749 36.9689 29.5196 36.9689C29.8643 36.9689 30.143 36.6896 30.143 36.3455V35.6903C33.0834 35.3967 35.4286 33.0522 35.7216 30.1117H36.3767C36.7215 30.1117 37.0001 29.8324 37.0001 29.4883C37.0001 29.1442 36.7215 28.865 36.3767 28.865ZM30.1342 34.4336C30.1118 34.1101 29.8494 33.852 29.5196 33.852C29.1898 33.852 28.9274 34.1101 28.9049 34.4336C26.6471 34.1543 24.8542 32.3615 24.575 30.1036C24.8985 30.0805 25.1559 29.8175 25.1559 29.4883C25.1559 29.1592 24.8985 28.8961 24.5743 28.8737C24.8536 26.6158 26.6464 24.823 28.9043 24.5437C28.9274 24.8666 29.1898 25.1247 29.5196 25.1247C29.8494 25.1247 30.1118 24.8666 30.1342 24.5431C32.3921 24.8224 34.1849 26.6152 34.4642 28.8731C34.1407 28.8961 33.8832 29.1592 33.8832 29.4883C33.8832 29.8175 34.1407 30.0805 34.4648 30.103C34.1849 32.3615 32.3927 34.1537 30.1342 34.4336Z" fill="white"/>
</g>
<path fill-rule="evenodd" clip-rule="evenodd" d="M21.3695 31.9978C21.4134 31.9978 21.4452 31.9558 21.4338 31.9134C21.0948 30.6476 21.0362 29.656 21.1637 28.5606C21.1674 28.5289 21.1427 28.5009 21.1108 28.5009H17.2484C16.8335 28.5009 16.4972 28.1645 16.4972 27.7496C16.4972 27.3347 16.8335 26.9984 17.2484 26.9984H21.413C21.4707 26.9984 21.5219 26.9609 21.54 26.906C21.7538 26.2593 21.9613 25.8346 22.2722 25.3036C22.2878 25.2769 22.2687 25.2433 22.2378 25.2433H17.2484C16.8341 25.2433 16.4987 24.9064 16.5005 24.492C16.5023 24.0803 16.8367 23.7474 17.2484 23.7474H23.2916C23.398 23.7474 23.4999 23.7046 23.5758 23.6301C24.2909 22.9291 24.9426 22.4768 25.7948 22.0499C25.82 22.0373 25.8111 21.9989 25.7829 21.9989H17.2551C16.8402 21.9989 16.5038 21.6626 16.5038 21.2477C16.5038 20.8328 16.8402 20.4965 17.2551 20.4965H26.7022C27.1428 20.4965 27.4999 20.8536 27.4999 21.2942V21.3607C27.4999 21.3948 27.5318 21.42 27.5651 21.4127C28.6085 21.184 29.4033 21.1525 30.3663 21.2415C30.4369 21.248 30.4983 21.1928 30.4983 21.1219V16.7735C30.4983 15.246 29.2601 14.0078 27.7326 14.0078H16.2578C14.7304 14.0078 13.4922 15.246 13.4922 16.7735V29.2322C13.4922 30.7596 14.7304 31.9978 16.2578 31.9978H21.3695ZM27.4999 18.2494C27.4999 18.6643 27.1636 19.0006 26.7487 19.0006H17.2551C16.8402 19.0006 16.5038 18.6643 16.5038 18.2494C16.5038 17.8345 16.8402 17.4981 17.2551 17.4981H26.7487C27.1636 17.4981 27.4999 17.8345 27.4999 18.2494Z" fill="#7C8298"/>
<defs>
<clipPath id="clip0_1530_1180">
<rect width="15" height="15" fill="white" transform="translate(22 22)"/>
</clipPath>
</defs>
</svg>
