<svg width="50" height="50" viewBox="0 0 50 50" fill="none" xmlns="http://www.w3.org/2000/svg">
<rect opacity="0.25" width="50" height="50" rx="14" fill="#C7D3FF"/>
<g clip-path="url(#clip0_1530_1191)">
<path d="M28.389 17.8966C28.3728 17.8966 28.3572 17.8988 28.341 17.899C27.9972 15.1381 25.647 13 22.793 13C19.939 13 17.5888 15.1381 17.245 17.899C17.2289 17.8988 17.2132 17.8966 17.197 17.8966C14.8791 17.8966 13 19.7756 13 22.0936C13 24.4116 14.8791 26.2907 17.197 26.2907C18.2734 26.2907 19.2521 25.8819 19.995 25.2157C20.7379 25.8819 21.7166 26.2907 22.793 26.2907C23.8694 26.2907 24.8481 25.8819 25.591 25.2157C25.6412 25.2606 25.6924 25.3045 25.7447 25.3471C25.7944 25.3876 25.8662 25.3847 25.9148 25.3429C27.7257 23.7845 29.8062 23.2379 32.143 23.7152C32.2059 23.7281 32.27 23.6955 32.2936 23.6358C32.4823 23.1584 32.586 22.6381 32.586 22.0936C32.586 19.7756 30.707 17.8966 28.389 17.8966ZM27.6895 22.7931C27.6895 23.5658 27.0631 24.1921 26.2905 24.1921H19.2955C18.5229 24.1921 17.8965 23.5658 17.8965 22.7931V19.2956C17.8965 18.5229 18.5229 17.8966 19.2955 17.8966H26.2905C27.0631 17.8966 27.6895 18.5229 27.6895 19.2956V22.7931Z" fill="#7C8298"/>
<path d="M17.8965 29.7897H17.0681C16.7784 28.9772 16.0092 28.3907 15.0985 28.3907C13.9413 28.3907 13 29.332 13 30.4892C13 31.6464 13.9413 32.5877 15.0985 32.5877C16.0092 32.5877 16.7784 32.0012 17.0681 31.1887H18.596C18.9826 31.1887 19.2955 30.8755 19.2955 30.4892V26.588C19.2955 26.5446 19.2492 26.517 19.2107 26.537C18.7573 26.7736 18.4263 26.889 17.9591 26.9798C17.9229 26.9868 17.8965 27.0184 17.8965 27.0552V29.7897Z" fill="white"/>
<path d="M23.4914 28.5176V26.9967C23.4914 26.9615 23.4599 26.9346 23.425 26.9397C22.9888 27.0032 22.6527 27.0028 22.1576 26.9384C22.1232 26.9339 22.0924 26.9607 22.0924 26.9954V28.5176C21.2799 28.8073 20.6934 29.5765 20.6934 30.4872C20.6934 31.6444 21.6347 32.5857 22.7919 32.5857C23.1194 32.5857 23.4296 32.5103 23.7061 32.376C23.7383 32.3603 23.7541 32.3239 23.7452 32.2892C23.4489 31.1374 23.4847 29.8241 23.8024 28.7259C23.8123 28.6915 23.7976 28.6547 23.766 28.638C23.6779 28.5917 23.5862 28.5514 23.4914 28.5176Z" fill="white"/>
<path d="M23.1204 22.0093C22.9155 22.1179 22.67 22.1179 22.465 22.0093L18.6611 19.9922H18.5957V22.7903C18.5957 23.1766 18.9089 23.4898 19.2952 23.4898H26.2902C26.6765 23.4898 26.9897 23.1766 26.9897 22.7903V19.9923H26.9241L23.1204 22.0093Z" fill="white"/>
<path d="M26.64 18.5938H18.9455C18.7523 18.5938 18.5957 18.7503 18.5957 18.9435C18.5957 19.094 18.692 19.2457 18.8348 19.2933L22.7927 21.3918L26.7506 19.2933C26.8934 19.2457 26.9897 19.094 26.9897 18.9435C26.9897 18.7503 26.8331 18.5938 26.64 18.5938Z" fill="white"/>
<path d="M30.6185 24.2344C29.3562 24.2344 28.1223 24.6087 27.0728 25.31C26.0232 26.0112 25.2052 27.008 24.7221 28.1742C24.2391 29.3404 24.1127 30.6236 24.359 31.8616C24.6052 33.0997 25.2131 34.2368 26.1056 35.1294C26.9982 36.022 28.1354 36.6298 29.3734 36.8761C30.6114 37.1223 31.8947 36.9959 33.0608 36.5129C34.227 36.0298 35.2238 35.2118 35.9251 34.1623C36.6264 33.1127 37.0007 31.8788 37.0007 30.6165C36.9989 28.9244 36.3259 27.3021 35.1294 26.1056C33.9329 24.9091 32.3106 24.2362 30.6185 24.2344ZM30.373 27.18C30.5187 27.18 30.661 27.2232 30.7822 27.3041C30.9033 27.385 30.9976 27.5 31.0534 27.6346C31.1091 27.7691 31.1237 27.9172 31.0953 28.0601C31.0669 28.2029 30.9967 28.3341 30.8937 28.4371C30.7908 28.5401 30.6595 28.6102 30.5167 28.6386C30.3738 28.6671 30.2258 28.6525 30.0912 28.5967C29.9567 28.541 29.8416 28.4466 29.7607 28.3255C29.6798 28.2044 29.6366 28.062 29.6366 27.9164C29.6366 27.7211 29.7142 27.5338 29.8523 27.3957C29.9904 27.2576 30.1777 27.18 30.373 27.18ZM31.1094 34.0531C30.849 34.0531 30.5993 33.9496 30.4151 33.7655C30.231 33.5814 30.1276 33.3316 30.1276 33.0712V30.6165C29.9974 30.6165 29.8725 30.5648 29.7804 30.4727C29.6883 30.3807 29.6366 30.2558 29.6366 30.1256C29.6366 29.9954 29.6883 29.8705 29.7804 29.7785C29.8725 29.6864 29.9974 29.6347 30.1276 29.6347C30.388 29.6347 30.6377 29.7381 30.8218 29.9223C31.006 30.1064 31.1094 30.3561 31.1094 30.6165V33.0712C31.2396 33.0712 31.3645 33.1229 31.4566 33.215C31.5486 33.3071 31.6004 33.4319 31.6004 33.5622C31.6004 33.6924 31.5486 33.8172 31.4566 33.9093C31.3645 34.0014 31.2396 34.0531 31.1094 34.0531Z" fill="white"/>
</g>
<defs>
<clipPath id="clip0_1530_1191">
<rect width="24" height="24" fill="white" transform="translate(13 13)"/>
</clipPath>
</defs>
</svg>
