<svg width="50" height="50" viewBox="0 0 50 50" fill="none" xmlns="http://www.w3.org/2000/svg">
<rect opacity="0.25" width="50" height="50" rx="14" fill="#C7D3FF"/>
<path fill-rule="evenodd" clip-rule="evenodd" d="M13 18.0765H37V17.001V16.7188C37 15.6142 36.1046 14.7188 35 14.7188H15C13.8954 14.7188 13 15.6142 13 16.7188V17.001V18.0765ZM34.931 15.9779C35.1595 15.9779 35.3448 16.166 35.3448 16.3976C35.3448 16.6293 35.1595 16.8174 34.931 16.8174C34.7026 16.8174 34.5172 16.6293 34.5172 16.3976C34.5172 16.166 34.7026 15.9779 34.931 15.9779ZM33.2759 15.9779C33.5043 15.9779 33.6897 16.166 33.6897 16.3976C33.6897 16.6293 33.5043 16.8174 33.2759 16.8174C33.0474 16.8174 32.8621 16.6293 32.8621 16.3976C32.8621 16.166 33.0474 15.9779 33.2759 15.9779ZM31.6207 15.9779C31.8491 15.9779 32.0345 16.166 32.0345 16.3976C32.0345 16.6293 31.8491 16.8174 31.6207 16.8174C31.3923 16.8174 31.2069 16.6293 31.2069 16.3976C31.2069 16.166 31.3923 15.9779 31.6207 15.9779Z" fill="#7C8298"/>
<path d="M37 18.9531H13V22.3817V32.2506C13 34.1411 14.3179 35.2388 16.2084 35.2388H33.7916C35.6821 35.2388 37 34.1411 37 32.2506V22.3817V18.9531ZM16.6579 27.1479C17.0631 27.553 17.2857 28.0904 17.2857 28.6629V28.8103C17.2857 29.5193 17.8624 30.096 18.5714 30.096C18.8083 30.096 19 30.2877 19 30.5246C19 30.7614 18.8083 30.9531 18.5714 30.9531C17.3895 30.9531 16.4286 29.9922 16.4286 28.8103V28.6629C16.4286 28.3248 16.2913 27.9933 16.0519 27.7539L15.697 27.399C15.5296 27.2316 15.5296 26.9604 15.697 26.793L16.0519 26.4381C16.2913 26.1987 16.4286 25.8672 16.4286 25.529V25.3817C16.4286 24.1998 17.3895 23.2388 18.5714 23.2388C18.8083 23.2388 19 23.4305 19 23.6674C19 23.9043 18.8083 24.096 18.5714 24.096C17.8624 24.096 17.2857 24.6727 17.2857 25.3817V25.529C17.2857 26.1016 17.0631 26.639 16.6579 27.0441L16.606 27.096L16.6579 27.1479ZM22.3472 29.4078C22.4903 29.5962 22.4535 29.8657 22.2651 30.0088C22.1873 30.0674 22.0961 30.0959 22.0057 30.0959C21.8767 30.0959 21.7487 30.0373 21.6641 29.9268C20.3977 28.2602 20.3977 25.9315 21.6641 24.265C21.8073 24.0766 22.076 24.0406 22.2651 24.1829C22.4535 24.3261 22.4903 24.5956 22.3472 24.7839C21.3285 26.1232 21.3285 28.0685 22.3472 29.4078ZM25.7644 29.9267C25.6799 30.0372 25.5518 30.0958 25.4229 30.0958C25.3325 30.0958 25.2413 30.0674 25.1634 30.0088C24.9751 29.8656 24.9383 29.5961 25.0814 29.4078C26.1001 28.0685 26.1001 26.1232 25.0814 24.7839C24.9383 24.5955 24.9751 24.326 25.1634 24.1829C25.3518 24.0406 25.6205 24.0766 25.7644 24.2649C27.0309 25.9315 27.0309 28.2602 25.7644 29.9267ZM29.1602 28.2561L28.303 29.1133C28.2193 29.197 28.1097 29.2388 28 29.2388C27.8903 29.2388 27.7807 29.197 27.697 29.1133C27.5296 28.9459 27.5296 28.6747 27.697 28.5073L28.5541 27.6501C28.7215 27.4827 28.9927 27.4827 29.1602 27.6501C29.3276 27.8175 29.3276 28.0887 29.1602 28.2561ZM28.4286 26.6674C27.9556 26.6674 27.5714 26.2832 27.5714 25.8103C27.5714 25.3373 27.9556 24.9531 28.4286 24.9531C28.9015 24.9531 29.2857 25.3373 29.2857 25.8103C29.2857 26.2832 28.9015 26.6674 28.4286 26.6674ZM34.303 27.399L33.9481 27.7539C33.7087 27.9933 33.5714 28.3248 33.5714 28.6629V28.8103C33.5714 29.9922 32.6105 30.9531 31.4286 30.9531C31.1917 30.9531 31 30.7614 31 30.5246C31 30.2877 31.1917 30.096 31.4286 30.096C32.1376 30.096 32.7143 29.5193 32.7143 28.8103V28.6629C32.7143 28.0904 32.9369 27.553 33.3421 27.1479L33.394 27.096L33.3421 27.0441C32.9369 26.639 32.7143 26.1016 32.7143 25.529V25.3817C32.7143 24.6727 32.1376 24.096 31.4286 24.096C31.1917 24.096 31 23.9043 31 23.6674C31 23.4305 31.1917 23.2388 31.4286 23.2388C32.6105 23.2388 33.5714 24.1998 33.5714 25.3817V25.529C33.5714 25.8672 33.7087 26.1987 33.9481 26.4381L34.303 26.793C34.4704 26.9604 34.4704 27.2316 34.303 27.399Z" fill="white"/>
</svg>
