<svg width="50" height="50" viewBox="0 0 50 50" fill="none" xmlns="http://www.w3.org/2000/svg">
<rect opacity="0.25" width="50" height="50" rx="14" fill="#C7D3FF"/>
<path d="M25 26.0156C22.2861 26.0156 20.0781 28.2236 20.0781 30.9375C20.0781 33.6514 22.2861 35.8594 25 35.8594C27.7139 35.8594 29.9219 33.6514 29.9219 30.9375C29.9219 28.2236 27.7139 26.0156 25 26.0156ZM27.1847 30.7315L24.9347 32.9815C24.6601 33.2561 24.2149 33.2561 23.9403 32.9815L22.7684 31.8097C22.4938 31.5351 22.4938 31.0899 22.7684 30.8153C23.043 30.5408 23.4882 30.5408 23.7628 30.8153L24.4375 31.49L26.1903 29.7372C26.4649 29.4626 26.9101 29.4626 27.1847 29.7372C27.4592 30.0118 27.4592 30.457 27.1847 30.7315Z" fill="white"/>
<path d="M13 30.9375C13 32.1005 13.9464 33.0469 15.1094 33.0469H19.0333C18.7994 32.3869 18.6719 31.6767 18.6719 30.9375C18.6719 27.4481 21.5106 24.6094 25 24.6094C28.4894 24.6094 31.3281 27.4481 31.3281 30.9375C31.3281 31.6767 31.2006 32.3869 30.9667 33.0469H34.8906C36.0536 33.0469 37 32.1005 37 30.9375V18.9844H13V30.9375ZM29.0482 20.4116C29.4249 20.3171 29.8067 20.5465 29.9009 20.9232L30.2185 22.1937L30.7431 21.4069C30.8735 21.2113 31.093 21.0938 31.3281 21.0938C31.5632 21.0938 31.7828 21.2113 31.9132 21.4069L32.4377 22.1937L32.7554 20.9232C32.8495 20.5465 33.2313 20.3175 33.608 20.4116C33.9848 20.5058 34.2138 20.8875 34.1196 21.2642L33.4165 24.0767C33.349 24.3468 33.1286 24.5515 32.8544 24.5991C32.8142 24.606 32.7741 24.6094 32.7342 24.6094C32.5018 24.6094 32.2811 24.494 32.1493 24.2963L31.3281 23.0645L30.5069 24.2963C30.3526 24.5278 30.076 24.6463 29.8019 24.5991C29.5277 24.5515 29.3072 24.3468 29.2397 24.0767L28.5366 21.2642C28.4424 20.8876 28.6715 20.5058 29.0482 20.4116ZM22.7201 20.4116C23.0969 20.3171 23.4786 20.5465 23.5728 20.9232L23.8904 22.1937L24.415 21.4069C24.5454 21.2113 24.7649 21.0938 25 21.0938C25.2351 21.0938 25.4546 21.2113 25.585 21.4069L26.1096 22.1937L26.4272 20.9232C26.5214 20.5465 26.9032 20.3175 27.2799 20.4116C27.6566 20.5058 27.8857 20.8875 27.7915 21.2642L27.0884 24.0767C27.0209 24.3468 26.8005 24.5515 26.5262 24.5991C26.4861 24.606 26.446 24.6094 26.4061 24.6094C26.1737 24.6094 25.953 24.494 25.8212 24.2963L25 23.0645L24.1788 24.2963C24.0244 24.5278 23.748 24.6463 23.4738 24.5991C23.1995 24.5515 22.9791 24.3468 22.9116 24.0767L22.2085 21.2642C22.1143 20.8876 22.3434 20.5058 22.7201 20.4116ZM16.392 20.4116C16.7687 20.3171 17.1505 20.5465 17.2446 20.9232L17.5623 22.1937L18.0868 21.4069C18.2172 21.2113 18.4368 21.0938 18.6719 21.0938C18.907 21.0938 19.1265 21.2113 19.2569 21.4069L19.7815 22.1937L20.0991 20.9232C20.1933 20.5465 20.575 20.3175 20.9518 20.4116C21.3285 20.5058 21.5575 20.8875 21.4634 21.2642L20.7603 24.0767C20.6927 24.3468 20.4723 24.5515 20.1981 24.5991C20.158 24.606 20.1178 24.6094 20.078 24.6094C19.8456 24.6094 19.6248 24.494 19.493 24.2963L18.6719 23.0645L17.8507 24.2963C17.6963 24.5278 17.4199 24.6463 17.1456 24.5991C16.8714 24.5515 16.651 24.3468 16.5835 24.0767L15.8804 21.2642C15.7862 20.8876 16.0152 20.5058 16.392 20.4116Z" fill="white"/>
<path fill-rule="evenodd" clip-rule="evenodd" d="M13 17.5687H37V16.4932V16.2109C37 15.1064 36.1046 14.2109 35 14.2109H15C13.8954 14.2109 13 15.1064 13 16.2109V16.4932V17.5687ZM34.931 15.4701C35.1595 15.4701 35.3448 15.6581 35.3448 15.8898C35.3448 16.1215 35.1595 16.3096 34.931 16.3096C34.7026 16.3096 34.5172 16.1215 34.5172 15.8898C34.5172 15.6581 34.7026 15.4701 34.931 15.4701ZM33.2759 15.4701C33.5043 15.4701 33.6897 15.6581 33.6897 15.8898C33.6897 16.1215 33.5043 16.3096 33.2759 16.3096C33.0474 16.3096 32.8621 16.1215 32.8621 15.8898C32.8621 15.6581 33.0474 15.4701 33.2759 15.4701ZM31.6207 15.4701C31.8491 15.4701 32.0345 15.6581 32.0345 15.8898C32.0345 16.1215 31.8491 16.3096 31.6207 16.3096C31.3923 16.3096 31.2069 16.1215 31.2069 15.8898C31.2069 15.6581 31.3923 15.4701 31.6207 15.4701Z" fill="#7C8298"/>
</svg>
