<svg width="170" height="205" viewBox="0 0 170 205" fill="none" xmlns="http://www.w3.org/2000/svg">
<path d="M74.9952 24.4004H116.264C120.24 24.4004 123.463 27.6233 123.463 31.599V31.599M44.901 24.4004H37.073C32.0988 24.4004 28.0664 28.4328 28.0664 33.407V86.1717C28.0664 91.1459 32.0988 95.1783 37.073 95.1783H92.195M39.775 37.0096L69.759 62.0706C72.618 64.4601 76.8361 64.2399 79.4307 61.5657L80.4078 60.5587" stroke="url(#paint0_linear_1530_1524)" stroke-width="5.38235" stroke-linecap="round"/>
<path d="M55.7629 24.4014H64.2255" stroke="#F2F2F2" stroke-width="5.38235" stroke-linecap="round"/>
<path d="M102.681 69.2722L111.059 77.455L130.608 58.3618M118.022 98.7772C139.393 90.7783 142.521 77.6897 141.848 52.4579C141.811 51.0679 140.966 49.8261 139.691 49.2724L118.082 39.8913C117.167 39.4941 116.128 39.494 115.213 39.8913L93.5166 49.3093C92.2852 49.8438 91.4477 51.0433 91.3712 52.3835C89.3258 88.2222 102.083 92.7655 115.324 98.6797C116.174 99.0594 117.15 99.1035 118.022 98.7772Z" stroke="url(#paint1_linear_1530_1524)" stroke-width="4.18628" stroke-linecap="round"/>
<g filter="url(#filter0_f_1530_1524)">
<ellipse cx="85" cy="107" rx="69" ry="5" fill="#05092A"/>
</g>
<g opacity="0.56" filter="url(#filter1_f_1530_1524)">
<path d="M74.9952 180.6H116.264C120.24 180.6 123.463 177.377 123.463 173.401V173.401M44.901 180.6H37.073C32.0988 180.6 28.0664 176.567 28.0664 171.593V118.828C28.0664 113.854 32.0988 109.822 37.073 109.822H92.195M39.775 167.99L69.759 142.929C72.618 140.54 76.8361 140.76 79.4307 143.434L80.4078 144.441" stroke="url(#paint2_linear_1530_1524)" stroke-width="5.38235" stroke-linecap="round"/>
<path d="M55.7629 180.599H64.2255" stroke="#F2F2F2" stroke-width="5.38235" stroke-linecap="round"/>
<path d="M102.681 135.728L111.059 127.545L130.608 146.638M118.022 106.223C139.393 114.222 142.521 127.31 141.848 152.542C141.811 153.932 140.966 155.174 139.691 155.728L118.082 165.109C117.167 165.506 116.128 165.506 115.213 165.109L93.5166 155.691C92.2852 155.156 91.4477 153.957 91.3712 152.617C89.3258 116.778 102.083 112.235 115.324 106.32C116.174 105.941 117.15 105.896 118.022 106.223Z" stroke="url(#paint3_linear_1530_1524)" stroke-width="4.18628" stroke-linecap="round"/>
</g>
<defs>
<filter id="filter0_f_1530_1524" x="0" y="86" width="170" height="42" filterUnits="userSpaceOnUse" color-interpolation-filters="sRGB">
<feFlood flood-opacity="0" result="BackgroundImageFix"/>
<feBlend mode="normal" in="SourceGraphic" in2="BackgroundImageFix" result="shape"/>
<feGaussianBlur stdDeviation="8" result="effect1_foregroundBlur_1530_1524"/>
</filter>
<filter id="filter1_f_1530_1524" x="4" y="63" width="162" height="162" filterUnits="userSpaceOnUse" color-interpolation-filters="sRGB">
<feFlood flood-opacity="0" result="BackgroundImageFix"/>
<feBlend mode="normal" in="SourceGraphic" in2="BackgroundImageFix" result="shape"/>
<feGaussianBlur stdDeviation="10" result="effect1_foregroundBlur_1530_1524"/>
</filter>
<linearGradient id="paint0_linear_1530_1524" x1="28.0664" y1="24.4" x2="102.791" y2="95.5667" gradientUnits="userSpaceOnUse">
<stop stop-color="#F2F2F2"/>
<stop offset="1" stop-color="#A0A0A0"/>
</linearGradient>
<linearGradient id="paint1_linear_1530_1524" x1="116.542" y1="39.2686" x2="116.542" y2="99.2759" gradientUnits="userSpaceOnUse">
<stop stop-color="#81CFB2"/>
<stop offset="1" stop-color="#1EB05A"/>
</linearGradient>
<linearGradient id="paint2_linear_1530_1524" x1="28.0664" y1="180.6" x2="102.791" y2="109.433" gradientUnits="userSpaceOnUse">
<stop stop-color="#F2F2F2"/>
<stop offset="1" stop-color="#A0A0A0"/>
</linearGradient>
<linearGradient id="paint3_linear_1530_1524" x1="116.542" y1="165.731" x2="116.542" y2="105.724" gradientUnits="userSpaceOnUse">
<stop stop-color="#81CFB2"/>
<stop offset="1" stop-color="#1EB05A"/>
</linearGradient>
</defs>
</svg>
