<svg width="31" height="31" viewBox="0 0 31 31" fill="none" xmlns="http://www.w3.org/2000/svg">
<g clip-path="url(#clip0_1530_952)">
<path d="M12.919 8.23145H22.2624C23.1598 8.23145 23.8873 8.95894 23.8873 9.85635V9.85635M6.10856 8.23145H4.33705C3.21137 8.23145 2.29883 9.14399 2.29883 10.2697V22.2105C2.29883 23.3362 3.21137 24.2487 4.33705 24.2487H16.6704M4.94852 11.085L11.2445 16.3472C12.2151 17.1585 13.6041 17.2338 14.6568 16.5323L14.8341 16.4142" stroke="#F0F0F0" stroke-width="1.2" stroke-linecap="round"/>
<path d="M8.56836 8.23145H10.4835" stroke="#F0F0F0" stroke-width="1.46835" stroke-linecap="round"/>
<path d="M23.25 25C24.0709 25.0011 24.884 24.8399 25.6424 24.5258C26.4008 24.2116 27.0897 23.7507 27.6694 23.1694C28.2507 22.5897 28.7116 21.9008 29.0258 21.1424C29.3399 20.384 29.5011 19.5709 29.5 18.75C29.5011 17.9291 29.3399 17.1161 29.0257 16.3576C28.7116 15.5992 28.2506 14.9104 27.6694 14.3306C27.0897 13.7494 26.4008 13.2884 25.6424 12.9743C24.884 12.6601 24.0709 12.4989 23.25 12.5C22.4291 12.499 21.6161 12.6601 20.8576 12.9743C20.0992 13.2885 19.4104 13.7494 18.8306 14.3306C18.2494 14.9104 17.7885 15.5992 17.4743 16.3576C17.1601 17.1161 16.999 17.9291 17 18.75C16.9989 19.5709 17.1601 20.384 17.4743 21.1424C17.7884 21.9008 18.2494 22.5897 18.8306 23.1694C19.4104 23.7506 20.0992 24.2116 20.8576 24.5257C21.6161 24.8399 22.4291 25.0011 23.25 25Z" stroke="#F0F0F0" stroke-width="1.15" stroke-linejoin="round"/>
<path d="M20.75 18.875L22.625 20.75L26.375 17" stroke="#F0F0F0" stroke-width="1.15" stroke-linecap="round" stroke-linejoin="round"/>
</g>
<defs>
<clipPath id="clip0_1530_952">
<rect width="30" height="30" fill="white" transform="translate(0.5 0.5)"/>
</clipPath>
</defs>
</svg>
