<svg width="60" height="60" viewBox="0 0 60 60" fill="none" xmlns="http://www.w3.org/2000/svg">
<g clip-path="url(#clip0_1530_1383)">
<path d="M57.5 27.5172L45 27.4922C43.625 27.4922 42.5 28.6172 42.5 29.9922V52.4922C42.5 53.8672 43.625 54.9922 45 54.9922H57.5C58.875 54.9922 60 53.8672 60 52.4922V29.9922C60 28.6172 58.875 27.5172 57.5 27.5172ZM57.5 49.9922H45V32.4922H57.5V49.9922ZM50 4.99219H5C2.25 4.99219 0 7.24219 0 9.99219V39.9922C0 42.7422 2.25 44.9922 5 44.9922H22.5V49.9922H20C18.625 49.9922 17.5 51.1172 17.5 52.4922C17.5 53.8672 18.625 54.9922 20 54.9922H35C36.375 54.9922 37.5 53.8672 37.5 52.4922C37.5 51.1172 36.375 49.9922 35 49.9922H32.5V44.9922H35C36.375 44.9922 37.5 43.8672 37.5 42.4922C37.5 41.1172 36.375 39.9922 35 39.9922H7.5C6.125 39.9922 5 38.8672 5 37.4922V12.4922C5 11.1172 6.125 9.99219 7.5 9.99219H47.5C48.875 9.99219 50 11.1172 50 12.4922V19.9922C50 21.3672 51.125 22.4922 52.5 22.4922C53.875 22.4922 55 21.3672 55 19.9922V9.99219C55 7.24219 52.75 4.99219 50 4.99219ZM29.925 22.4922L27.5 14.9922L25.075 22.4922H17.5L23.675 26.8922L21.325 34.1672L27.5 29.6672L33.675 34.1672L31.325 26.8922L37.5 22.4922H29.925Z" fill="white"/>
</g>
<defs>
<clipPath id="clip0_1530_1383">
<rect width="60" height="60" fill="white"/>
</clipPath>
</defs>
</svg>
