<svg width="100" height="100" viewBox="0 0 100 100" fill="none" xmlns="http://www.w3.org/2000/svg">
<rect opacity="0.25" width="100" height="100" rx="20.8955" fill="#C7D3FF"/>
<path d="M72.6843 59.1383C72.1453 58.5984 71.4894 58.3286 70.7181 58.3286H58.3697C57.9652 59.4081 57.2854 60.2948 56.3311 60.9887C55.3765 61.6828 54.3116 62.03 53.1358 62.03H45.7318C44.5559 62.03 43.4907 61.6827 42.5366 60.9887C41.5821 60.2948 40.9028 59.4082 40.4979 58.3286H28.1493C27.3783 58.3286 26.7228 58.5984 26.1828 59.1383C25.6429 59.6777 25.3731 60.3332 25.3731 61.1045V70.3586C25.3731 71.1294 25.6429 71.7857 26.1828 72.3247C26.7227 72.8644 27.3782 73.1341 28.1493 73.1341H70.7185C71.4894 73.1341 72.1453 72.8644 72.6846 72.3247C73.2247 71.785 73.4943 71.1294 73.4943 70.3586V61.1045C73.4943 60.3332 73.2247 59.6784 72.6843 59.1383ZM61.8405 68.8837C61.4737 69.2501 61.0398 69.4335 60.5385 69.4335C60.0372 69.4335 59.6039 69.2501 59.2372 68.8837C58.8711 68.5177 58.6881 68.0837 58.6881 67.5824C58.6881 67.0811 58.8711 66.6469 59.2372 66.2811C59.6039 65.9151 60.0372 65.7313 60.5385 65.7313C61.0398 65.7313 61.4736 65.915 61.8405 66.2811C62.2064 66.6468 62.3896 67.0811 62.3896 67.5824C62.3896 68.0837 62.2064 68.5176 61.8405 68.8837ZM69.2432 68.8837C68.8772 69.2501 68.4432 69.4335 67.9418 69.4335C67.4406 69.4335 67.007 69.2501 66.6405 68.8837C66.2746 68.5177 66.0915 68.0837 66.0915 67.5824C66.0915 67.0811 66.2746 66.6469 66.6405 66.2811C67.0069 65.9151 67.4405 65.7313 67.9418 65.7313C68.4431 65.7313 68.8771 65.915 69.2432 66.2811C69.6096 66.6468 69.7929 67.0811 69.7929 67.5824C69.7929 68.0837 69.6099 68.5176 69.2432 68.8837Z" fill="#7C8298"/>
<path d="M36.4787 43.5235H43.882V56.4796C43.882 56.9808 44.0652 57.4147 44.4314 57.7809C44.7978 58.1468 45.2316 58.3306 45.7327 58.3306H53.1367C53.6379 58.3306 54.0713 58.1469 54.438 57.7809C54.804 57.4148 54.9871 56.9809 54.9871 56.4796V43.5235H62.3905C63.2006 43.5235 63.7694 43.1377 64.0967 42.3668C64.4246 41.615 64.2893 40.9497 63.6918 40.3712L50.7358 27.4153C50.3884 27.049 49.9552 26.8657 49.4345 26.8657C48.9143 26.8657 48.4804 27.049 48.1332 27.4153L35.1776 40.3712C34.5797 40.9497 34.4449 41.6146 34.7725 42.3668C35.1006 43.1381 35.6692 43.5235 36.4787 43.5235Z" fill="white"/>
</svg>
