<svg width="60" height="60" viewBox="0 0 60 60" fill="none" xmlns="http://www.w3.org/2000/svg">
<g clip-path="url(#clip0_1530_1390)">
<path fill-rule="evenodd" clip-rule="evenodd" d="M41.6777 32.8359C45.1027 35.1609 47.5027 38.3109 47.5027 42.5109V50.0109H55.0027C56.3777 50.0109 57.5027 48.8859 57.5027 47.5109V42.5109C57.5027 37.0609 48.5777 33.8359 41.6777 32.8359Z" fill="white"/>
<path d="M22.5039 30.0078C28.0268 30.0078 32.5039 25.5307 32.5039 20.0078C32.5039 14.485 28.0268 10.0078 22.5039 10.0078C16.9811 10.0078 12.5039 14.485 12.5039 20.0078C12.5039 25.5307 16.9811 30.0078 22.5039 30.0078Z" fill="white"/>
<path fill-rule="evenodd" clip-rule="evenodd" d="M37.5027 30.0078C43.0277 30.0078 47.5027 25.5328 47.5027 20.0078C47.5027 14.4828 43.0277 10.0078 37.5027 10.0078C36.3277 10.0078 35.2277 10.2578 34.1777 10.6078C36.2527 13.1828 37.5027 16.4578 37.5027 20.0078C37.5027 23.5578 36.2527 26.8328 34.1777 29.4078C35.2277 29.7578 36.3277 30.0078 37.5027 30.0078Z" fill="white"/>
<path fill-rule="evenodd" clip-rule="evenodd" d="M22.502 32.5078C15.827 32.5078 2.50195 35.8578 2.50195 42.5078V47.5078C2.50195 48.8828 3.62695 50.0078 5.00195 50.0078H40.002C41.377 50.0078 42.502 48.8828 42.502 47.5078V42.5078C42.502 35.8578 29.177 32.5078 22.502 32.5078Z" fill="white"/>
</g>
<defs>
<clipPath id="clip0_1530_1390">
<rect width="60" height="60" fill="white"/>
</clipPath>
</defs>
</svg>
