<svg width="100" height="100" viewBox="0 0 100 100" fill="none" xmlns="http://www.w3.org/2000/svg">
<rect opacity="0.25" width="100" height="100" rx="20.8955" fill="#C7D3FF"/>
<path d="M68.2716 26.8657H30.1396C28.8755 26.8657 27.6631 27.3679 26.7692 28.2618C25.8753 29.1557 25.3731 30.3681 25.3731 31.6322V53.8758C25.3731 55.14 25.8753 56.3524 26.7692 57.2463C27.6631 58.1401 28.8755 58.6423 30.1396 58.6423H48.6865V48.8521C48.6862 47.8489 48.9429 47.3811 49.5306 46.5681C50.1182 45.7551 50.9474 45.1482 51.9001 44.8339L61.1449 40.9933C62.1051 40.6802 63.1399 40.6802 64.1001 40.9933L71.7712 44.7807L73.038 45.3756V31.6322C73.038 30.3681 72.5359 29.1557 71.642 28.2618C70.7481 27.3679 69.5357 26.8657 68.2716 26.8657ZM56.4348 40.2754L51.6683 43.1353C50.9288 43.5777 50.0832 43.8113 49.2215 43.8113C48.3598 43.8113 47.5142 43.5777 46.7747 43.1353L42.0082 40.2754L31.1406 33.7612L32.7294 31.0443L48.3476 40.4184C48.5892 40.5579 48.8631 40.6313 49.142 40.6313C49.4209 40.6313 49.6949 40.5579 49.9364 40.4184L65.5388 31.0443L67.1276 33.7612L56.4348 40.2754Z" fill="#7C8298"/>
<path d="M63.2266 43.5341C62.8674 43.3747 62.4576 43.3747 62.0984 43.5341L51.5724 48.207C51.0701 48.43 50.7463 48.928 50.7463 49.4777V56.5089C50.7463 63.8489 55.8305 70.7128 62.6625 72.3791C69.4945 70.7128 74.5787 63.8489 74.5787 56.5089V49.4777C74.5787 48.928 74.2549 48.43 73.7526 48.207L63.2266 43.5341ZM60.5057 63.9533C60.2343 64.2244 59.7946 64.2244 59.5232 63.9533L55.07 59.5052C54.8759 59.3113 54.8759 58.9966 55.07 58.8027L56.235 57.639C56.4286 57.4456 56.7421 57.4453 56.9361 57.6383L59.6636 60.3522C59.8575 60.5451 60.1711 60.5448 60.3647 60.3515L68.3876 52.3376C68.582 52.1435 68.897 52.144 69.0907 52.3388L70.2574 53.5126C70.4504 53.7067 70.4499 54.0204 70.2562 54.2139L60.5057 63.9533Z" fill="white"/>
</svg>
