<svg width="60" height="60" viewBox="0 0 60 60" fill="none" xmlns="http://www.w3.org/2000/svg">
<g clip-path="url(#clip0_1530_1408)">
<path d="M29.998 4.99219C16.198 4.99219 4.99805 16.1922 4.99805 29.9922C4.99805 43.7922 16.198 54.9922 29.998 54.9922C43.798 54.9922 54.998 43.7922 54.998 29.9922C54.998 16.1922 43.798 4.99219 29.998 4.99219ZM21.873 34.1922C21.548 35.2672 20.323 35.7672 19.323 35.3172C18.473 34.9172 18.048 33.9672 18.323 33.0672C18.623 32.0422 18.773 30.9922 18.748 29.9672C18.723 28.9422 18.598 27.9672 18.323 27.0172C18.073 26.1172 18.473 25.1422 19.323 24.7672C20.373 24.2922 21.598 24.8672 21.923 25.9922C22.298 27.2672 22.473 28.5672 22.498 29.9172C22.498 31.3172 22.298 32.7672 21.873 34.1922ZM29.723 38.1672C29.298 39.1922 28.048 39.5922 27.073 39.0422C26.248 38.5672 25.923 37.5672 26.273 36.6922C27.098 34.7672 27.498 32.6172 27.498 30.2922C27.498 27.8922 27.048 25.5672 26.173 23.3422C25.823 22.4422 26.223 21.4422 27.073 20.9922C28.048 20.4922 29.248 20.9422 29.648 21.9672C30.698 24.6172 31.223 27.4172 31.223 30.2922C31.273 33.1172 30.748 35.7672 29.723 38.1672ZM37.498 41.4922C37.073 42.4922 35.898 42.9422 34.948 42.4672C34.073 42.0422 33.648 40.9922 34.023 40.0922C35.498 36.6172 36.248 33.2172 36.248 29.9422C36.248 26.6672 35.498 23.3172 34.048 19.9172C33.648 19.0172 34.073 17.9672 34.948 17.5422C35.923 17.0422 37.073 17.4922 37.498 18.4922C39.148 22.3422 39.998 26.1922 39.998 29.9422C39.998 33.6922 39.148 37.5922 37.498 41.4922Z" fill="white"/>
</g>
<defs>
<clipPath id="clip0_1530_1408">
<rect width="60" height="60" fill="white"/>
</clipPath>
</defs>
</svg>
